<svg viewBox="0 -25 450 500"
      stroke='white' xmlns="http://www.w3.org/2000/svg">
      <path fill='var(--color-background)' d="M0 0 C0.8650415 0.03456299 1.73008301 0.06912598 2.62133789 0.10473633 C7.20362558 0.35224412 11.24989279 0.79564393 15.5 2.6875 C17.96970072 6.1132139 18.51041376 8.0835022 18.4375 12.3125 C17.41409331 15.9967641 16.59322284 17.47805511 13.5 19.6875 C12.18 19.6875 10.86 19.6875 9.5 19.6875 C9.83 37.5075 10.16 55.3275 10.5 73.6875 C14.46 75.6675 18.42 77.6475 22.5 79.6875 C29.50474398 84.87925142 36.61785804 90.36428706 41.5 97.6875 C44.58510827 96.48773567 47.55047042 95.18747444 50.5 93.6875 C50.32210937 95.48380859 50.32210937 95.48380859 50.140625 97.31640625 C49.31487046 107.10215348 49.65517488 114.53702139 52.55859375 123.9453125 C56.50310882 139.62516908 52.39257918 155.85269406 44.48828125 169.61328125 C33.77822265 186.17284141 20.38878851 195.52275959 1.5 200.6875 C-1.52811932 201.31242295 -4.41261638 201.60947948 -7.5 201.6875 C-8.35851562 201.72617187 -9.21703125 201.76484375 -10.1015625 201.8046875 C-28.40928861 202.26882704 -45.35255008 195.60467089 -58.6875 183.0625 C-65.67567565 175.76225271 -71.02169497 167.5387625 -73.5 157.6875 C-74.21027344 157.56632813 -74.92054688 157.44515625 -75.65234375 157.3203125 C-77.03099609 157.06894531 -77.03099609 157.06894531 -78.4375 156.8125 C-79.81228516 156.56886719 -79.81228516 156.56886719 -81.21484375 156.3203125 C-81.96894531 156.11148438 -82.72304687 155.90265625 -83.5 155.6875 C-83.83 155.0275 -84.16 154.3675 -84.5 153.6875 C-81.53 154.0175 -78.56 154.3475 -75.5 154.6875 C-75.7165625 153.79224609 -75.7165625 153.79224609 -75.9375 152.87890625 C-80.11709002 133.34512787 -77.21818789 115.67864838 -66.5 98.6875 C-62.63150046 92.98339314 -58.27340802 87.57198297 -52.5 83.6875 C-51.84 83.6875 -51.18 83.6875 -50.5 83.6875 C-50.5 83.0275 -50.5 82.3675 -50.5 81.6875 C-45.22 79.0475 -39.94 76.4075 -34.5 73.6875 C-34.17 56.1975 -33.84 38.7075 -33.5 20.6875 C-35.48 20.0275 -37.46 19.3675 -39.5 18.6875 C-41.76800347 15.96589584 -42.43598244 14.1996405 -42.875 10.6875 C-42.43598244 7.1753595 -41.76800347 5.40910416 -39.5 2.6875 C-34.2610182 0.3764264 -29.07196843 0.21248127 -23.4375 0 C-22.00277344 -0.05861206 -22.00277344 -0.05861206 -20.5390625 -0.1184082 C-13.6796882 -0.34933897 -6.85632049 -0.29539979 0 0 Z M-55.25 93.30859375 C-67.45249859 106.21019382 -72.78437171 122.10871034 -72.44140625 139.69140625 C-72.04310734 145.53583316 -70.83039909 150.31744991 -68.5 155.6875 C-67.015 155.1925 -67.015 155.1925 -65.5 154.6875 C-65.7165625 153.80449219 -65.933125 152.92148437 -66.15625 152.01171875 C-69.6450685 136.97426495 -69.59681545 121.42815391 -61.75 107.54296875 C-54.10047263 96.18820156 -45.69846376 88.80915553 -33.5 82.6875 C-33.5 81.6975 -33.5 80.7075 -33.5 79.6875 C-41.09923371 79.6875 -50.01645319 88.35182105 -55.25 93.30859375 Z M9.5 79.6875 C9.73823764 81.64336688 9.73823764 81.64336688 10.5 83.6875 C12.35835456 84.63357141 14.22311261 85.5690456 16.1171875 86.44140625 C24.28973803 90.71524825 30.2797919 97.22018245 35.5 104.6875 C36.16 104.3575 36.82 104.0275 37.5 103.6875 C36.48867157 96.91937898 29.97962938 91.73987016 24.9609375 87.5859375 C20.02209152 83.99265946 15.32154024 81.52020711 9.5 79.6875 Z M36.5 105.6875 C37.49 107.0075 38.48 108.3275 39.5 109.6875 C39.83 108.3675 40.16 107.0475 40.5 105.6875 C39.18 105.6875 37.86 105.6875 36.5 105.6875 Z M41.5 111.6875 C40.20609113 115.56922661 41.13405811 117.09300472 42.4375 120.9375 C47.82037672 139.04863728 42.45301025 153.54179974 34.5 169.6875 C35.49 169.6875 36.48 169.6875 37.5 169.6875 C47.49015132 157.88580124 48.46565761 142.75975246 47.70214844 128.046875 C47.30118236 123.36700037 46.17966825 119.05637803 44.5 114.6875 C44.17 113.6975 43.84 112.7075 43.5 111.6875 C42.84 111.6875 42.18 111.6875 41.5 111.6875 Z M-66.5 159.6875 C-65.35569823 163.56052138 -64.26679902 166.69013439 -61.5 169.6875 C-60.84 169.6875 -60.18 169.6875 -59.5 169.6875 C-60.20554068 166.01868845 -61.77735506 162.98299466 -63.5 159.6875 C-64.49 159.6875 -65.48 159.6875 -66.5 159.6875 Z " transform="translate(233.5,114.3125)" />
      <path fill='var(--color-text-primary)' d="M0 0 C-0.17789063 1.79630859 -0.17789063 1.79630859 -0.359375 3.62890625 C-1.18512954 13.41465348 -0.84482512 20.84952139 2.05859375 30.2578125 C6.00310882 45.93766908 1.89257918 62.16519406 -6.01171875 75.92578125 C-16.72177735 92.48534141 -30.11121149 101.83525959 -49 107 C-52.02811932 107.62492295 -54.91261638 107.92197948 -58 108 C-58.85851562 108.03867187 -59.71703125 108.07734375 -60.6015625 108.1171875 C-78.90928861 108.58132704 -95.85255008 101.91717089 -109.1875 89.375 C-116.17567565 82.07475271 -121.52169497 73.8512625 -124 64 C-125.06541016 63.81824219 -125.06541016 63.81824219 -126.15234375 63.6328125 C-127.07144531 63.46523438 -127.99054688 63.29765625 -128.9375 63.125 C-129.85402344 62.96257812 -130.77054688 62.80015625 -131.71484375 62.6328125 C-132.46894531 62.42398438 -133.22304687 62.21515625 -134 62 C-134.33 61.34 -134.66 60.68 -135 60 C-134.21625 60.165 -133.4325 60.33 -132.625 60.5 C-128.06033858 61.12960847 -123.59927399 61.08180527 -119 61 C-119 61.66 -119 62.32 -119 63 C-110.42 63 -101.84 63 -93 63 C-93 54.42 -93 45.84 -93 37 C-80.5 31 -80.5 31 -76 31 C-76 40.57 -76 50.14 -76 60 C-73.525 59.505 -73.525 59.505 -71 59 C-70.67 46.46 -70.34 33.92 -70 21 C-57 15 -57 15 -54 16 C-54 28.21 -54 40.42 -54 53 C-52.68 52.67 -51.36 52.34 -50 52 C-50 49.36 -50 46.72 -50 44 C-48.50549145 43.34155873 -47.00399308 42.698979 -45.5 42.0625 C-44.24703125 41.52302734 -44.24703125 41.52302734 -42.96875 40.97265625 C-40 40 -40 40 -36.06640625 39.74609375 C-31.09348575 39.2053547 -28.69941852 36.57975162 -25.4375 33 C-24.87957764 32.41347656 -24.32165527 31.82695312 -23.74682617 31.22265625 C-15.51766806 22.50298771 -15.51766806 22.50298771 -10 12 C-11.32 11.67 -12.64 11.34 -14 11 C-13.34 10.67 -12.68 10.34 -12 10 C-12 9.34 -12 8.68 -12 8 C-11.195625 7.731875 -10.39125 7.46375 -9.5625 7.1875 C-8.2940625 6.5996875 -8.2940625 6.5996875 -7 6 C-6.67 5.01 -6.34 4.02 -6 3 C-2.55555556 0 -2.55555556 0 0 0 Z M-9 18 C-10.29390887 21.88172661 -9.36594189 23.40550472 -8.0625 27.25 C-2.67962328 45.36113728 -8.04698975 59.85429974 -16 76 C-15.01 76 -14.02 76 -13 76 C-3.00984868 64.19830124 -2.03434239 49.07225246 -2.79785156 34.359375 C-3.19881764 29.67950037 -4.32033175 25.36887803 -6 21 C-6.33 20.01 -6.66 19.02 -7 18 C-7.66 18 -8.32 18 -9 18 Z M-117 66 C-115.85569823 69.87302138 -114.76679902 73.00263439 -112 76 C-111.34 76 -110.68 76 -110 76 C-110.70554068 72.33118845 -112.27735506 69.29549466 -114 66 C-114.99 66 -115.98 66 -117 66 Z " transform="translate(284,208)" />
      <path fill='var(--color-text-primary)' d="M0 0 C0.66 0 1.32 0 2 0 C2 8.25 2 16.5 2 25 C2.99 25 3.98 25 5 25 C5 24.34 5 23.68 5 23 C7.1875 20.3125 7.1875 20.3125 10 18 C14.43324104 17.88632715 17.574166 20.37087158 21 23 C21 23.66 21 24.32 21 25 C22.65 25.66 24.3 26.32 26 27 C22.49023417 34.51155491 16.72646105 39.38279251 10 44 C9.41863281 44.43183594 8.83726562 44.86367188 8.23828125 45.30859375 C-0.23528712 51.20884418 -11.7039726 54.73981158 -22 55 C-23.28777344 55.05800781 -23.28777344 55.05800781 -24.6015625 55.1171875 C-41.67992084 55.55015997 -57.96894061 49.82899029 -70.8359375 38.50390625 C-78.23110862 31.37360515 -78.23110862 31.37360515 -80 26 C-79.030625 25.38125 -78.06125 24.7625 -77.0625 24.125 C-73.97164638 22.34321154 -73.97164638 22.34321154 -73 20 C-70.57449823 18.75447206 -68.74616041 17.97668249 -66 18.0625 C-63.07623265 19.43301594 -61.2377782 21.70484287 -59 24 C-58.01 24.33 -57.02 24.66 -56 25 C-56 22.36 -56 19.72 -56 17 C-50.72 16.67 -45.44 16.34 -40 16 C-40 22.6 -40 29.2 -40 36 C-38.35 36 -36.7 36 -35 36 C-35 29.07 -35 22.14 -35 15 C-22.5 11 -22.5 11 -18 11 C-18 19.25 -18 27.5 -18 36 C-16.68 36 -15.36 36 -14 36 C-14 26.76 -14 17.52 -14 8 C-7.5625 4.5625 -7.5625 4.5625 -5.53344727 3.48266602 C-2.580635 2.00841456 -2.580635 2.00841456 0 0 Z " transform="translate(248,261)" />
      <path fill='var(--color-text-primary)' d="M0 0 C4.98136385 0.54244913 8.90261007 2.18621039 13.25 4.5625 C13.90677734 4.91747559 14.56355469 5.27245117 15.24023438 5.63818359 C21.0066572 8.84190872 26.04158097 12.65311932 31 17 C31.5369751 17.43417236 32.0739502 17.86834473 32.62719727 18.31567383 C37.0525814 21.9436041 40.54912324 25.83587489 43.9375 30.4375 C44.45256104 31.13488281 44.96762207 31.83226562 45.49829102 32.55078125 C53.92537217 44.20953689 59.35779134 56.10947144 63 70 C63.24621094 70.88429688 63.49242187 71.76859375 63.74609375 72.6796875 C69.0058513 95.38733042 63.75516022 120.85389744 51.8125 140.625 C34.74820574 165.82764998 34.74820574 165.82764998 24.14770508 168.45996094 C21.63571207 169.09159997 19.54637738 170.09851914 17.2265625 171.25 C16.3190625 171.6934375 15.4115625 172.136875 14.4765625 172.59375 C12.5818025 173.52815219 10.68855804 174.46563413 8.796875 175.40625 C4.12880043 177.68077925 0.19574604 179.32302983 -5 180 C-5.33 180.66 -5.66 181.32 -6 182 C-21.03456486 189.99710897 -42.41569971 186.5316104 -58 181.8125 C-82.92520501 173.78563754 -101.94583885 157.2201923 -114.22192383 134.19506836 C-126.4207904 110.37381929 -129.41652465 84.66044512 -121.16040039 58.97094727 C-115.65889133 42.82967203 -106.25832227 27.92265928 -93 17 C-91.67235766 16.64467663 -90.33812477 16.31354584 -89 16 C-86.76935253 14.62467086 -84.60358832 13.2195608 -82.4375 11.75 C-67.68362403 2 -67.68362403 2 -61 2 C-61 3.32 -61 4.64 -61 6 C-61.77694214 6.38369751 -61.77694214 6.38369751 -62.56958008 6.77514648 C-72.97999051 11.96128925 -82.44426421 17.01969423 -91 25 C-91.61488281 25.52464844 -92.22976562 26.04929688 -92.86328125 26.58984375 C-106.61385526 39.01277613 -113.20469781 57.22360514 -118.01953125 74.578125 C-119 78 -119 78 -120 80 C-120.09603561 81.58495002 -120.13074594 83.17386324 -120.1328125 84.76171875 C-120.13410156 85.71626953 -120.13539063 86.67082031 -120.13671875 87.65429688 C-120.13285156 88.65525391 -120.12898437 89.65621094 -120.125 90.6875 C-120.12886719 91.66912109 -120.13273438 92.65074219 -120.13671875 93.66210938 C-120.1297155 98.8830331 -119.90642787 103.85638155 -119 109 C-118.34 109 -117.68 109 -117 109 C-116.63648438 110.17175781 -116.27296875 111.34351563 -115.8984375 112.55078125 C-108.20195393 136.83884343 -94.53578329 156.4061608 -72 169 C-50.1684354 180.16479223 -25.94356548 182.40556431 -2.5703125 174.8984375 C8.79804992 170.75232885 20.17313606 165.17148928 28.625 156.29296875 C30 155 30 155 32 155 C32 154.34 32 153.68 32 153 C32.66 153 33.32 153 34 153 C34.26296875 152.42507813 34.5259375 151.85015625 34.796875 151.2578125 C36.06956652 148.86944984 37.53628026 146.9669732 39.25 144.875 C49.2945685 132.04373962 54.50239498 117.80212917 58 102 C58.50270865 99.95273722 59.02306056 97.91288233 59.5625 95.875 C61.27746919 84.60520247 60.38869086 71.58303629 54 62 C53.255677 60.23919157 52.51376538 58.47725689 51.79272461 56.70678711 C48.18005045 47.91281835 43.76846167 40.55904364 38 33 C37.30003906 32.02353516 37.30003906 32.02353516 36.5859375 31.02734375 C28.00426296 19.89222617 13.27230403 10.42410134 0 6 C0 4.02 0 2.04 0 0 Z M52 51 C53 53 53 53 53 53 Z M53 53 C54 55 54 55 54 55 Z M54 56 C55 58 55 58 55 58 Z M55 58 C56 61 56 61 56 61 Z M-120 74 C-119 76 -119 76 -119 76 Z M-118 115 C-117 117 -117 117 -117 117 Z M-116 121 C-115 123 -115 123 -115 123 Z M-114 126 C-113 128 -113 128 -113 128 Z " transform="translate(252,158)" />
      <path fill='var(--color-background)' d="M0 0 C6.14804874 9.22207311 6.15039395 21.27888748 4.56640625 31.91015625 C2.69445345 39.80491371 -1.20907299 46.88552054 -5 54 C-8 54 -8 54 -10.4375 52.4375 C-12.82959094 50.79339932 -12.82959094 50.79339932 -15.1875 51.125 C-17.35509414 51.98214661 -17.35509414 51.98214661 -19 55 C-19.66 55 -20.32 55 -21 55 C-21 55.66 -21 56.32 -21 57 C-21.99 57 -22.98 57 -24 57 C-24 48.75 -24 40.5 -24 32 C-28.52009272 34.628088 -28.52009272 34.628088 -33.03466797 37.265625 C-37.77777778 40 -37.77777778 40 -40 40 C-40 49.24 -40 58.48 -40 68 C-41.32 68 -42.64 68 -44 68 C-44 59.75 -44 51.5 -44 43 C-46.248125 43.66 -48.49625 44.32 -50.8125 45 C-57.625 47 -57.625 47 -61 47 C-61 53.93 -61 60.86 -61 68 C-62.65 68 -64.3 68 -66 68 C-66 61.4 -66 54.8 -66 48 C-66.99 48.33 -67.98 48.66 -69 49 C-71.22818441 49.06937062 -73.45834524 49.08457084 -75.6875 49.0625 C-77.45673828 49.04896484 -77.45673828 49.04896484 -79.26171875 49.03515625 C-80.16535156 49.02355469 -81.06898438 49.01195312 -82 49 C-82 51.64 -82 54.28 -82 57 C-85.28531218 56.63496531 -86.02549068 55.97026088 -88.25 53.375 C-90.65768685 50.82593098 -90.65768685 50.82593098 -93.0625 50.82421875 C-95.53465688 51.04331547 -95.53465688 51.04331547 -99 52 C-99.33 52.66 -99.66 53.32 -100 54 C-104 47.25 -104 47.25 -104 45 C-102.99735107 45.01047363 -101.99470215 45.02094727 -100.96166992 45.03173828 C-97.19136214 45.06832576 -93.42106957 45.09103934 -89.65063477 45.10986328 C-88.02821196 45.11983357 -86.40580671 45.13341469 -84.78344727 45.15087891 C-75.64104514 45.24672894 -66.94313987 45.18278567 -58 43 C-57.18112305 42.80849365 -56.36224609 42.6169873 -55.51855469 42.41967773 C-43.78280553 39.5221062 -32.6908782 33.03543611 -23.234375 25.6640625 C-21.2130301 24.15865528 -19.28813245 23.03910602 -17 22 C-17 21.34 -17 20.68 -17 20 C-16.34 20 -15.68 20 -15 20 C-15 19.34 -15 18.68 -15 18 C-14.34 18 -13.68 18 -13 18 C-12.75121094 17.45472656 -12.50242187 16.90945312 -12.24609375 16.34765625 C-10.74322597 13.51623451 -8.95339187 11.02559222 -7.0625 8.4375 C-6.37285156 7.48746094 -5.68320312 6.53742188 -4.97265625 5.55859375 C-3.40632075 3.52701009 -1.87141597 1.7423528 0 0 Z " transform="translate(274,229)" />
      <path fill='var(--color-background)' d="M0 0 C2.97 0 5.94 0 9 0 C11.03627575 4.07255149 11.23848858 5.67416475 11.1953125 10.078125 C11.18564453 11.81835938 11.18564453 11.81835938 11.17578125 13.59375 C11.15902344 14.8003125 11.14226562 16.006875 11.125 17.25 C11.11597656 18.47203125 11.10695313 19.6940625 11.09765625 20.953125 C11.07409603 23.96883366 11.03822539 26.98444158 11 30 C15.29 30 19.58 30 24 30 C24 30.66 24 31.32 24 32 C24.66 32 25.32 32 26 32 C26.02126953 31.07767578 26.02126953 31.07767578 26.04296875 30.13671875 C26.43050847 23.56949153 26.43050847 23.56949153 29 21 C33.0277994 19.6574002 36.76436111 19.31609245 41 19 C37.7 19 34.4 19 31 19 C31 18.34 31 17.68 31 17 C30.01 17 29.02 17 28 17 C28 15.02 28 13.04 28 11 C33.0927674 8.4536163 41.40272242 9.18149733 47 10 C50.13327916 11.46250549 52.131846 13.09162389 54 16 C54.96088383 18.88265149 55.11670941 20.67662271 55.09765625 23.66796875 C55.09443359 24.56064453 55.09121094 25.45332031 55.08789062 26.37304688 C55.07532227 27.76620117 55.07532227 27.76620117 55.0625 29.1875 C55.05798828 30.12787109 55.05347656 31.06824219 55.04882812 32.03710938 C55.03704626 34.35813712 55.02059558 36.67903644 55 39 C52.36 39 49.72 39 47 39 C47 38.34 47 37.68 47 37 C46.154375 37.495 45.30875 37.99 44.4375 38.5 C39.68177024 40.57522753 35.90642484 40.63547495 31 39 C31 38.34 31 37.68 31 37 C29.68 37 28.36 37 27 37 C26.67 37.66 26.34 38.32 26 39 C22.95736733 39.10845027 19.91863796 39.18752063 16.875 39.25 C16.0190625 39.28351563 15.163125 39.31703125 14.28125 39.3515625 C8.51538627 39.4402681 5.40698414 38.80155181 1 35 C-0.50606515 31.98786971 -0.12160331 28.88717378 -0.09765625 25.5859375 C-0.0962413 24.85629791 -0.09482635 24.12665833 -0.09336853 23.37490845 C-0.08776531 21.04156415 -0.07521235 18.70831536 -0.0625 16.375 C-0.05748541 14.79427222 -0.05292243 13.21354293 -0.04882812 11.6328125 C-0.03779484 7.75517146 -0.02052811 3.87760193 0 0 Z M37 29 C37 29.66 37 30.32 37 31 C39.97065509 30.65772428 39.97065509 30.65772428 43 30 C43.33 29.34 43.66 28.68 44 28 C40.51418144 26.7979936 40.32007656 26.78661563 37 29 Z " transform="translate(107,367)" />
      <path fill='var(--color-background)' d="M0 0 C0 0.66 0 1.32 0 2 C0.66 2 1.32 2 2 2 C2 4.31 2 6.62 2 9 C0.94039062 9.04898437 -0.11921875 9.09796875 -1.2109375 9.1484375 C-2.59898497 9.22346709 -3.98700451 9.29901485 -5.375 9.375 C-6.42300781 9.42140625 -6.42300781 9.42140625 -7.4921875 9.46875 C-11.70185827 9.59499498 -11.70185827 9.59499498 -15 12 C-16.06656853 17.67599947 -16.37197713 23.35964956 -15 29 C-12.36 29 -9.72 29 -7 29 C-7 24.38 -7 19.76 -7 15 C0.51649213 14.63033645 0.51649213 14.63033645 2.60717773 16.22875977 C4.39695606 18.50480565 4.36101443 19.76179194 4.328125 22.6328125 C4.32296875 23.52097656 4.3178125 24.40914063 4.3125 25.32421875 C4.291875 26.24847656 4.27125 27.17273438 4.25 28.125 C4.24484375 29.05699219 4.2396875 29.98898437 4.234375 30.94921875 C4.15406388 37.84593612 4.15406388 37.84593612 3 39 C-0.06481021 39.1613058 -2.05549278 38.98150241 -5 38 C-5.5775 38.309375 -6.155 38.61875 -6.75 38.9375 C-10.66827436 40.78779622 -14.50648749 40.39115804 -18.625 39.3125 C-23.00903113 36.88974595 -26.07854869 33.60934225 -28 29 C-28.43105795 25.92681041 -28.37022258 22.85054271 -28.375 19.75 C-28.39949219 18.92886719 -28.42398438 18.10773438 -28.44921875 17.26171875 C-28.47660432 11.50162144 -27.53624393 6.6845419 -24 2 C-17.0509404 -2.59159706 -7.7826239 -1.73882047 0 0 Z " transform="translate(224,367)" />
      <path fill='var(--color-background)' d="M0 0 C1.28003906 -0.04382813 2.56007812 -0.08765625 3.87890625 -0.1328125 C4.95893921 -0.16979248 4.95893921 -0.16979248 6.06079102 -0.20751953 C8 0 8 0 9.9375 2.125 C11.03660043 5.09903647 11.63422486 7.85433377 12 11 C12.58007812 10.94199219 13.16015625 10.88398438 13.7578125 10.82421875 C18.01210098 10.57850902 21.02923725 10.48448655 24.4375 13.25 C29.37880823 18.55286737 29.43201853 22.74617785 29.3203125 29.85546875 C28.8807876 34.17031682 28.00372846 35.91283464 25 39 C19.70844868 42.36100732 12.7090435 41.6256218 6.73046875 40.6171875 C3.82832783 39.84735644 2.1446907 39.1446907 0 37 C-0.17525055 34.20315203 -0.23143189 31.5067192 -0.1953125 28.7109375 C-0.1924826 27.89251373 -0.18965271 27.07408997 -0.18673706 26.23086548 C-0.17552532 23.61209607 -0.15041929 20.99366636 -0.125 18.375 C-0.11497147 16.60156743 -0.1058454 14.82812951 -0.09765625 13.0546875 C-0.07558278 8.70299374 -0.04104644 4.3515545 0 0 Z M11.25 20.4375 C9.35010914 24.33227626 10.26122964 27.83440326 11 32 C13.41619823 32.25030977 13.41619823 32.25030977 16 32 C18.71232939 27.93150591 18.30699887 25.83523216 18 21 C17.34 20.34 16.68 19.68 16 19 C13.00891165 18.68263029 13.00891165 18.68263029 11.25 20.4375 Z " transform="translate(165,366)" />
      <path fill='var(--color-background)' d="M0 0 C2.31 0 4.62 0 7 0 C7 0.66 7 1.32 7 2 C7.825 1.67 8.65 1.34 9.5 1 C13.44372264 -0.1267779 16.97017442 -0.90671076 21 0 C24.87048981 2.35951014 27.55447666 4.66342997 29 9 C29.12040604 11.12250645 29.17533819 13.24911587 29.1875 15.375 C29.20167969 16.49648438 29.21585937 17.61796875 29.23046875 18.7734375 C28.92673251 23.02574486 28.15063572 25.88648156 25.0625 28.875 C20.34110879 30.60938861 15.90232722 29.71259748 11 29 C11 32.3 11 35.6 11 39 C6.94988606 40.15717541 4.76349849 39.88174925 1 38 C0 37 0 37 -0.11352539 33.48999023 C-0.11336626 31.92951578 -0.10767142 30.36903607 -0.09765625 28.80859375 C-0.0962413 27.98875504 -0.09482635 27.16891632 -0.09336853 26.32423401 C-0.08775289 23.69528618 -0.07519779 21.06642227 -0.0625 18.4375 C-0.05748701 16.65950643 -0.05292376 14.88151154 -0.04882812 13.10351562 C-0.03777839 8.73564455 -0.02050331 4.36783652 0 0 Z M10 9 C8.62902148 12.56454416 8.92756846 16.23355995 9 20 C12.40320934 20.67673447 12.40320934 20.67673447 16 21 C18.24324836 19.18806994 18.24324836 19.18806994 18.1953125 16.6171875 C18.17210937 15.71226562 18.14890625 14.80734375 18.125 13.875 C18.10695313 12.96492188 18.08890625 12.05484375 18.0703125 11.1171875 C18.04710937 10.41851562 18.02390625 9.71984375 18 9 C13.89776415 7.98459888 13.89776415 7.98459888 10 9 Z " transform="translate(284,377)" />
      <path fill='var(--color-background)' d="M0 0 C2.64 0 5.28 0 8 0 C8 0.99 8 1.98 8 3 C8.66 3 9.32 3 10 3 C10 5.97 10 8.94 10 12 C10.99 11.67 11.98 11.34 13 11 C17.64796219 10.46905301 20.96344284 10.35215177 25 12.875 C28.04561068 16.11096134 28.1215314 17.88128488 28.09765625 22.2265625 C28.09443359 23.2578125 28.09121094 24.2890625 28.08789062 25.3515625 C28.07951172 26.43179687 28.07113281 27.51203125 28.0625 28.625 C28.05798828 29.71296875 28.05347656 30.8009375 28.04882812 31.921875 C28.03701776 34.61463789 28.02054778 37.30729188 28 40 C25.69 40 23.38 40 21 40 C21 39.34 21 38.68 21 38 C19.68 38 18.36 38 17 38 C17 32.06 17 26.12 17 20 C14.69 20.33 12.38 20.66 10 21 C10.01160156 22.28777344 10.02320313 23.57554687 10.03515625 24.90234375 C10.0445327 26.58072772 10.05363305 28.25911326 10.0625 29.9375 C10.07087891 30.78763672 10.07925781 31.63777344 10.08789062 32.51367188 C10.09111328 33.32255859 10.09433594 34.13144531 10.09765625 34.96484375 C10.10289307 35.7137085 10.10812988 36.46257324 10.11352539 37.23413086 C10 39 10 39 9 40 C7.00041636 40.04080783 4.99954746 40.04254356 3 40 C3 39.34 3 38.68 3 38 C2.01 38 1.02 38 0 38 C0 25.46 0 12.92 0 0 Z " transform="translate(316,366)" />
      <path fill='var(--color-background)' d="M0 0 C4.98136385 0.54244913 8.90261007 2.18621039 13.25 4.5625 C13.90677734 4.91747559 14.56355469 5.27245117 15.24023438 5.63818359 C21.0066572 8.84190872 26.04158097 12.65311932 31 17 C31.5369751 17.43417236 32.0739502 17.86834473 32.62719727 18.31567383 C37.0525814 21.9436041 40.54912324 25.83587489 43.9375 30.4375 C44.45256104 31.13488281 44.96762207 31.83226562 45.49829102 32.55078125 C53.92537217 44.20953689 59.35779134 56.10947144 63 70 C63.24621094 70.88429688 63.49242187 71.76859375 63.74609375 72.6796875 C68.57547354 93.52928578 64.32763913 116.0462373 55 135 C53.31640625 136.9140625 53.31640625 136.9140625 52 138 C51.67 137.01 51.34 136.02 51 135 C51.95718076 133.30837866 52.96780622 131.64692252 54 130 C55.15293468 127.41612804 56.13881855 124.77629183 57.125 122.125 C57.38925781 121.44308594 57.65351563 120.76117188 57.92578125 120.05859375 C59.5652506 115.68944955 60.50312714 111.64151964 61 107 C60.67 107 60.34 107 60 107 C59.29540272 102.02445921 58.91644926 97.93617561 60 93 C60.73689827 82.35591395 59.9976579 70.99648685 54 62 C53.255677 60.23919157 52.51376538 58.47725689 51.79272461 56.70678711 C48.18005045 47.91281835 43.76846167 40.55904364 38 33 C37.53335938 32.34902344 37.06671875 31.69804687 36.5859375 31.02734375 C28.00426296 19.89222617 13.27230403 10.42410134 0 6 C0 4.02 0 2.04 0 0 Z M52 51 C53 53 53 53 53 53 Z M53 53 C54 55 54 55 54 55 Z M54 56 C55 58 55 58 55 58 Z M55 58 C56 61 56 61 56 61 Z " transform="translate(252,158)" />
      <path fill='var(--color-background)' d="M0 0 C0.75152344 -0.02900391 1.50304687 -0.05800781 2.27734375 -0.08789062 C7.57423779 -0.14797756 10.55140278 0.79845667 14.75 4.3125 C16.00248502 6.81747004 15.86374406 8.52103274 15.84765625 11.3203125 C15.84443359 12.30644531 15.84121094 13.29257812 15.83789062 14.30859375 C15.82951172 15.34113281 15.82113281 16.37367188 15.8125 17.4375 C15.80798828 18.47777344 15.80347656 19.51804687 15.79882812 20.58984375 C15.78701952 23.16411962 15.77055075 25.73828146 15.75 28.3125 C11.015625 29.3828125 11.015625 29.3828125 8.625 28.75 C8.00625 28.605625 7.3875 28.46125 6.75 28.3125 C5.76 28.9725 4.77 29.6325 3.75 30.3125 C-2.29323393 31.00979622 -5.43002646 29.71483427 -10.25 26.3125 C-12.67186865 22.5774753 -12.43845671 19.65727102 -11.875 15.375 C-11.25 13.3125 -11.25 13.3125 -8.6875 11.25 C-7.883125 10.940625 -7.07875 10.63125 -6.25 10.3125 C-6.58 9.3225 -6.91 8.3325 -7.25 7.3125 C-8.24 7.3125 -9.23 7.3125 -10.25 7.3125 C-10.25 5.3325 -10.25 3.3525 -10.25 1.3125 C-7.02434056 -0.30032972 -3.54059192 0.04462931 0 0 Z M-1.25 17.3125 C-1.25 18.6325 -1.25 19.9525 -1.25 21.3125 C1.72065509 20.97022428 1.72065509 20.97022428 4.75 20.3125 C5.08 19.6525 5.41 18.9925 5.75 18.3125 C3.44 17.9825 1.13 17.6525 -1.25 17.3125 Z " transform="translate(264.25,376.6875)" />
      <path fill='var(--color-background)' d="M0 0 C2.97 0 5.94 0 9 0 C11.03627575 4.07255149 11.23848858 5.67416475 11.1953125 10.078125 C11.18564453 11.81835938 11.18564453 11.81835938 11.17578125 13.59375 C11.15902344 14.8003125 11.14226562 16.006875 11.125 17.25 C11.11597656 18.47203125 11.10695313 19.6940625 11.09765625 20.953125 C11.07409603 23.96883366 11.03822539 26.98444158 11 30 C15.29 30 19.58 30 24 30 C24 32.31 24 34.62 24 37 C20.75030231 37.11638036 17.5011417 37.18730581 14.25 37.25 C12.86941406 37.30027344 12.86941406 37.30027344 11.4609375 37.3515625 C10.57148437 37.36445313 9.68203125 37.37734375 8.765625 37.390625 C7.54020996 37.4220459 7.54020996 37.4220459 6.29003906 37.45410156 C3.00461514 36.80262091 1.92309596 35.73018714 0 33 C-0.34959406 30.31827524 -0.46923774 28.06062042 -0.390625 25.390625 C-0.38496521 24.66381531 -0.37930542 23.93700562 -0.37347412 23.18817139 C-0.35114553 20.87476755 -0.30096048 18.5629328 -0.25 16.25 C-0.22993023 14.67840784 -0.21168029 13.10679132 -0.1953125 11.53515625 C-0.15129293 7.68950283 -0.08229375 3.84501711 0 0 Z " transform="translate(107,367)" />
      <path fill='var(--color-background)' d="M0 0 C0.33 0 0.66 0 1 0 C1.82739379 13.57538701 -2.22594831 28.89540953 -9 40.75 C-10.14483894 43.02813781 -10.14483894 43.02813781 -10.33984375 45.83984375 C-11.09082037 49.43475551 -12.20592808 51.0316529 -14.5625 53.8125 C-15.28695313 54.67101562 -16.01140625 55.52953125 -16.7578125 56.4140625 C-17.49773437 57.26742187 -18.23765625 58.12078125 -19 59 C-19.65742188 59.79148437 -20.31484375 60.58296875 -20.9921875 61.3984375 C-25.78792886 67.04161911 -31.32422158 73.52865066 -38.58203125 75.8125 C-41 76 -41 76 -44 74 C-42.85807217 72.85807217 -41.71550762 71.71677615 -40.5703125 70.578125 C-39.42984968 69.43198823 -38.30112694 68.27413185 -37.1796875 67.109375 C-36.56351562 66.47515625 -35.94734375 65.8409375 -35.3125 65.1875 C-34.73113281 64.58292969 -34.14976562 63.97835937 -33.55078125 63.35546875 C-32 62 -32 62 -30 62 C-30 61.34 -30 60.68 -30 60 C-29.34 60 -28.68 60 -28 60 C-27.73703125 59.42507813 -27.4740625 58.85015625 -27.203125 58.2578125 C-25.93043348 55.86944984 -24.46371974 53.9669732 -22.75 51.875 C-12.73676198 39.0837622 -7.40924319 24.79017897 -4 9 C-3.01 9 -2.02 9 -1 9 C-0.67 6.03 -0.34 3.06 0 0 Z " transform="translate(314,251)" />
      <path fill='var(--color-background)' d="M0 0 C0.99 0.33 1.98 0.66 3 1 C1.71372289 2.17260611 0.42080217 3.3379283 -0.875 4.5 C-1.59429687 5.1496875 -2.31359375 5.799375 -3.0546875 6.46875 C-5 8 -5 8 -7 8 C-7 8.66 -7 9.32 -7 10 C-6.01 10.33 -5.02 10.66 -4 11 C-4.825 11.99 -5.65 12.98 -6.5 14 C-9.59511787 18.11945449 -11.94475989 22.47316877 -14.25 27.0625 C-14.59095703 27.73474609 -14.93191406 28.40699219 -15.28320312 29.09960938 C-21.78404881 42.32101123 -21.57863324 55.85937428 -19.375 70.125 C-19.25125 71.07375 -19.1275 72.0225 -19 73 C-20 74 -20 74 -21.84765625 74.09765625 C-23.8984375 74.06510417 -25.94921875 74.03255208 -28 74 C-26.515 73.505 -26.515 73.505 -25 73 C-25.2165625 72.10474609 -25.2165625 72.10474609 -25.4375 71.19140625 C-29.61709002 51.65762787 -26.71818789 33.99114838 -16 17 C-12.13150046 11.29589314 -7.77340802 5.88448297 -2 2 C-1.34 2 -0.68 2 0 2 C0 1.34 0 0.68 0 0 Z " transform="translate(183,196)" />
      <path fill='var(--color-background)' d="M0 0 C2.31 0 4.62 0 7 0 C7 0.66 7 1.32 7 2 C7.86625 1.67 8.7325 1.34 9.625 1 C12.95718275 0.01268659 15.55159538 -0.16420974 19 0 C19 0.66 19 1.32 19 2 C19.99 2 20.98 2 22 2 C21.67 3.98 21.34 5.96 21 8 C18.03 8.99 15.06 9.98 12 11 C11.67 16.94 11.34 22.88 11 29 C3 29 3 29 0 27 C-0.34057617 24.29443359 -0.34057617 24.29443359 -0.29296875 20.8984375 C-0.28330078 19.68671875 -0.27363281 18.475 -0.26367188 17.2265625 C-0.23853516 15.95554687 -0.21339844 14.68453125 -0.1875 13.375 C-0.17396484 12.09625 -0.16042969 10.8175 -0.14648438 9.5 C-0.11103196 6.33291718 -0.06161441 3.16666459 0 0 Z " transform="translate(231,377)" />
      <path fill='var(--color-text-primary)' d="M0 0 C0.66 0 1.32 0 2 0 C9.50525899 7.85983816 10.61582182 20.19849434 10.4699707 30.65234375 C9.95559974 42.76557311 6.25545669 55.16694686 -1 65 C-3.03125 66.0390625 -3.03125 66.0390625 -5 66 C-6.75 64.5625 -6.75 64.5625 -8 63 C-7.62488281 62.52433594 -7.24976563 62.04867187 -6.86328125 61.55859375 C2.83827144 48.28921564 4.52988565 33.98998906 3 18 C2.41323219 14.85945865 1.70838195 11.97120391 0.65625 8.9609375 C0 7 0 7 0 4 C-0.66 3.67 -1.32 3.34 -2 3 C-1.34 2.01 -0.68 1.02 0 0 Z " transform="translate(277,222)" />
      <path fill='var(--color-text-primary)' d="M0 0 C0 1.32 0 2.64 0 4 C-0.77694214 4.38369751 -0.77694214 4.38369751 -1.56958008 4.77514648 C-11.97999051 9.96128925 -21.44426421 15.01969423 -30 23 C-30.61488281 23.52464844 -31.22976562 24.04929688 -31.86328125 24.58984375 C-38.51730505 30.60141008 -44.32723989 39.29379589 -48.12890625 47.41015625 C-48.41636719 47.93480469 -48.70382813 48.45945313 -49 49 C-51.625 49.75 -51.625 49.75 -54 50 C-53.0148275 46.817135 -51.95437086 43.91056688 -50.4375 40.9375 C-48.90989362 38.17071512 -48.90989362 38.17071512 -48.59765625 35.58203125 C-46.78762425 27.76221981 -37.99518626 19.96459047 -32 15 C-30.67001865 14.65353427 -29.33615247 14.32184695 -28 14 C-25.76935253 12.62467086 -23.60358832 11.2195608 -21.4375 9.75 C-6.68362403 0 -6.68362403 0 0 0 Z " transform="translate(191,160)" />
      <path fill='var(--color-text-primary)' d="M0 0 C0 2.70913108 -0.03812115 4.49811661 -1 7 C-2.76245117 8.2644043 -2.76245117 8.2644043 -5.04296875 9.32421875 C-5.86990234 9.71287109 -6.69683594 10.10152344 -7.54882812 10.50195312 C-8.41958984 10.89318359 -9.29035156 11.28441406 -10.1875 11.6875 C-11.46463867 12.29174805 -11.46463867 12.29174805 -12.76757812 12.90820312 C-17.22565426 14.96657239 -21.11258042 16.29066159 -26 17 C-26.33 17.66 -26.66 18.32 -27 19 C-27 18.34 -27 17.68 -27 17 C-27.61101562 17.2165625 -28.22203125 17.433125 -28.8515625 17.65625 C-42.27322716 21.73946066 -58.47369293 21.62427367 -72 18 C-71.67 16.68 -71.34 15.36 -71 14 C-69.741875 14.33 -68.48375 14.66 -67.1875 15 C-43.62688791 19.63870408 -19.73479477 13.15652985 0 0 Z " transform="translate(273,321)" />
      <path fill='var(--color-text-primary)' d="M0 0 C0.66 0.66 1.32 1.32 2 2 C0.02 2.99 0.02 2.99 -2 4 C-1.34 2.68 -0.68 1.36 0 0 Z M-3 4 C-1.07480241 9.77559276 -4.44910345 16.00355729 -7.0625 21.25 C-12.58157422 33.43002586 -11.24287246 47.94840757 -11 61 C-13 60 -13 60 -14.10546875 56.93359375 C-18.26198777 40.90713327 -14.17108597 22.95099674 -6.62109375 8.6953125 C-5 6 -5 6 -3 4 Z " transform="translate(173,208)" />
      <path fill='var(--color-text-primary)' d="M0 0 C7.51253425 -0.63391223 13.21303066 4.72154416 18.76171875 9.2578125 C23.25941492 13.22439059 27.3123896 17.27524918 31 22 C31.66 22.66 32.32 23.32 33 24 C32.195625 24.28875 31.39125 24.5775 30.5625 24.875 C27.8673532 25.73262568 27.8673532 25.73262568 27 28 C26.2265625 26.4840625 26.2265625 26.4840625 25.4375 24.9375 C20.04313602 15.67407496 10.1342573 8.37808577 0 5 C0 3.35 0 1.7 0 0 Z " transform="translate(244,190)" />
      <path fill='var(--color-text-primary)' d="M0 0 C0.8650415 0.03456299 1.73008301 0.06912598 2.62133789 0.10473633 C7.20362558 0.35224412 11.24989279 0.79564393 15.5 2.6875 C17.96970072 6.1132139 18.51041376 8.0835022 18.4375 12.3125 C17.41409331 15.9967641 16.59322284 17.47805511 13.5 19.6875 C12.18 19.6875 10.86 19.6875 9.5 19.6875 C9.5 36.8475 9.5 54.0075 9.5 71.6875 C7.5822615 67.85202301 7.26099205 66.76100865 7.36474609 62.73535156 C7.38491791 61.75463684 7.40508972 60.77392212 7.4258728 59.76348877 C7.47416733 58.1867337 7.47416733 58.1867337 7.5234375 56.578125 C7.56097641 54.95520538 7.56097641 54.95520538 7.59927368 53.29949951 C7.68141848 49.8451784 7.77803063 46.39143366 7.875 42.9375 C7.93324512 40.5950756 7.99054827 38.25262757 8.046875 35.91015625 C8.18698914 30.16895197 8.33898189 24.42815397 8.5 18.6875 C9.469375 18.39875 10.43875 18.11 11.4375 17.8125 C14.60664203 17.04535318 14.60664203 17.04535318 15.5 14.6875 C15.64396771 10.80037189 15.53794298 7.4273898 14.5 3.6875 C7.31008919 3.63681827 0.1202244 3.60177412 -7.06982422 3.57763672 C-9.51613079 3.56757496 -11.96242533 3.55392419 -14.40869141 3.53662109 C-17.92353282 3.51238081 -21.4382153 3.50101862 -24.953125 3.4921875 C-26.0480426 3.48186493 -27.14296021 3.47154236 -28.27105713 3.46090698 C-29.29181335 3.46075592 -30.31256958 3.46060486 -31.36425781 3.46044922 C-32.70994843 3.45378738 -32.70994843 3.45378738 -34.08282471 3.44699097 C-36.65582894 3.70300499 -38.28549571 4.38728676 -40.5 5.6875 C-40.17 4.6975 -39.84 3.7075 -39.5 2.6875 C-34.36087685 0.27054481 -29.01551854 0.21035249 -23.4375 0 C-22.48101562 -0.03907471 -21.52453125 -0.07814941 -20.5390625 -0.1184082 C-13.6796882 -0.34933897 -6.85632049 -0.29539979 0 0 Z " transform="translate(233.5,114.3125)" />
      <path fill='var(--color-text-primary)' d="M0 0 C0 0.99 0 1.98 0 3 C0.09152344 3.77601563 0.18304688 4.55203125 0.27734375 5.3515625 C-0.46516576 12.44200538 -9.54245087 18.83088589 -14.8125 23.125 C-17.81381995 25.47875561 -20.1571854 26.69059464 -24 27 C-24.99 26.34 -25.98 25.68 -27 25 C-25.85807217 23.85807217 -24.71550762 22.71677615 -23.5703125 21.578125 C-22.42984968 20.43198823 -21.30112694 19.27413185 -20.1796875 18.109375 C-19.56351562 17.47515625 -18.94734375 16.8409375 -18.3125 16.1875 C-17.73113281 15.58292969 -17.14976562 14.97835938 -16.55078125 14.35546875 C-15 13 -15 13 -13 13 C-13 12.34 -13 11.68 -13 11 C-12.34 11 -11.68 11 -11 11 C-10.67 10.01 -10.34 9.02 -10 8 C-8 7.5 -8 7.5 -6 7 C-4.24399324 5.39255122 -4.24399324 5.39255122 -2.75 3.4375 C-2.22921875 2.79683594 -1.7084375 2.15617187 -1.171875 1.49609375 C-0.78515625 1.00238281 -0.3984375 0.50867188 0 0 Z " transform="translate(297,300)" />
      <path fill='var(--color-text-primary)' d="M0 0 C0.66 0 1.32 0 2 0 C9.23772982 7.57966981 10.35296535 18.9926656 10.375 29.0625 C10.37741699 30.1148584 10.37741699 30.1148584 10.37988281 31.18847656 C10.28749986 35.46478091 9.55154935 39.02182746 8 43 C7.67 43 7.34 43 7 43 C7 35.41 7 27.82 7 20 C6.67 25.28 6.34 30.56 6 36 C5.01 35.67 4.02 35.34 3 35 C3.03480469 33.90042969 3.06960938 32.80085938 3.10546875 31.66796875 C3.2776718 23.74842236 3.19960668 16.70808295 0.65625 9.1015625 C0 7 0 7 0 4 C-0.66 3.67 -1.32 3.34 -2 3 C-1.34 2.01 -0.68 1.02 0 0 Z " transform="translate(277,222)" />
      <path fill='var(--color-text-primary)' d="M0 0 C3 2 3 2 4 5 C4.12040604 7.12250645 4.17533819 9.24911587 4.1875 11.375 C4.20167969 12.49648438 4.21585937 13.61796875 4.23046875 14.7734375 C3.92673251 19.02574486 3.15063572 21.88648156 0.0625 24.875 C-4.65889121 26.60938861 -9.09767278 25.71259748 -14 25 C-14 28.3 -14 31.6 -14 35 C-17.37817425 35.84454356 -19.67465243 36.10844919 -23 35 C-23 34.34 -23 33.68 -23 33 C-21.02 33 -19.04 33 -17 33 C-17 29.37 -17 25.74 -17 22 C-16.01 22.33 -15.02 22.66 -14 23 C-8.64033849 23.34578461 -5.38091432 23.45162946 -1 20 C0.1482685 17.703463 0.11561175 16.41686833 0.09765625 13.8671875 C0.09282227 12.65869141 0.09282227 12.65869141 0.08789062 11.42578125 C0.07951172 10.58402344 0.07113281 9.74226563 0.0625 8.875 C0.05798828 8.02550781 0.05347656 7.17601562 0.04882812 6.30078125 C0.03702874 4.20049091 0.01909306 2.1002367 0 0 Z " transform="translate(309,381)" />
      <path fill='var(--color-text-primary)' d="M0 0 C3.17199834 0.43254523 6.32469234 0.86963998 9.46875 1.4765625 C16.84081693 2.86400206 24.10712395 3.37478185 31.58886719 3.65820312 C32.37551758 3.68978516 33.16216797 3.72136719 33.97265625 3.75390625 C35.02851929 3.78979858 35.02851929 3.78979858 36.10571289 3.82641602 C38 4 38 4 41 5 C41 4.34 41 3.68 41 3 C44.96 2.34 48.92 1.68 53 1 C52.67 1.99 52.34 2.98 52 4 C37.65052962 10.62283248 15.46621535 7.82207178 1 3 C0.67 2.01 0.34 1.02 0 0 Z " transform="translate(193,337)" />
      <path fill='var(--color-text-primary)' d="M0 0 C3 1 3 1 4.75390625 4.421875 C5.36774968 5.85994638 5.97017111 7.30293416 6.5625 8.75 C6.86607422 9.46671875 7.16964844 10.1834375 7.48242188 10.921875 C8.07039787 12.31559587 8.65107274 13.71242434 9.22363281 15.11254883 C9.8804325 16.70931562 10.57129537 18.29200646 11.26953125 19.87109375 C12 22 12 22 11.125 24.3125 C10.75375 24.869375 10.3825 25.42625 10 26 C6.01403338 22.56042431 4.05931265 18.65381081 1.8125 14 C1.45736328 13.2884375 1.10222656 12.576875 0.73632812 11.84375 C-0.87200334 8.57215355 -2.20406628 5.57305566 -3 2 C-2.01 1.34 -1.02 0.68 0 0 Z M1 3 C2 5 2 5 2 5 Z M3 8 C4 10 4 10 4 10 Z " transform="translate(135,276)" />
      <path fill='var(--color-text-primary)' d="M0 0 C0 2.70913108 -0.03812115 4.49811661 -1 7 C-2.76245117 8.2644043 -2.76245117 8.2644043 -5.04296875 9.32421875 C-5.86990234 9.71287109 -6.69683594 10.10152344 -7.54882812 10.50195312 C-8.41958984 10.89318359 -9.29035156 11.28441406 -10.1875 11.6875 C-11.46463867 12.29174805 -11.46463867 12.29174805 -12.76757812 12.90820312 C-17.22565426 14.96657239 -21.11258042 16.29066159 -26 17 C-26.33 17.66 -26.66 18.32 -27 19 C-27 18.34 -27 17.68 -27 17 C-27.99 17 -28.98 17 -30 17 C-29.505 15.515 -29.505 15.515 -29 14 C-26.70693419 12.93129962 -24.49790142 12.03685811 -22.125 11.1875 C-14.28319557 8.2285408 -6.98991747 4.65994498 0 0 Z " transform="translate(273,321)" />
      <path fill='var(--color-text-primary)' d="M0 0 C0.33 0 0.66 0 1 0 C1 2.31 1 4.62 1 7 C0.34 7 -0.32 7 -1 7 C-1.23074219 7.58910156 -1.46148437 8.17820312 -1.69921875 8.78515625 C-3.33131704 11.56413442 -5.11854014 12.6886475 -7.8125 14.4375 C-13.43225242 18.13983791 -13.43225242 18.13983791 -18 23 C-18.68188632 27.04261176 -18.29747067 31.10758799 -17 35 C-17.66 35 -18.32 35 -19 35 C-21.39781965 30.39618627 -22.59437902 27.08528275 -21.6171875 21.91015625 C-20.11633613 17.26511624 -17.54635293 14.84515385 -13.3984375 12.578125 C-12.44195312 12.09859375 -11.48546875 11.6190625 -10.5 11.125 C-5.64062092 8.66256532 -3.27897571 6.36121544 -0.8046875 1.5390625 C-0.53914063 1.03117187 -0.27359375 0.52328125 0 0 Z " transform="translate(234,72)" />
      <path fill='var(--color-text-primary)' d="M0 0 C0.99 0 1.98 0 3 0 C4.31169395 3.93508184 3.09134368 6.38974642 1.75 10.125 C1.27977821 11.47520133 0.80972565 12.8254616 0.33984375 14.17578125 C0.10894043 14.8301416 -0.12196289 15.48450195 -0.35986328 16.15869141 C-1.18371056 18.52843061 -1.93409926 20.91957433 -2.6875 23.3125 C-4 27 -4 27 -6 29 C-6.46290221 31.66242821 -6.46290221 31.66242821 -6.625 34.625 C-6.69976562 35.62789062 -6.77453125 36.63078125 -6.8515625 37.6640625 C-6.90054688 38.43492187 -6.94953125 39.20578125 -7 40 C-7.33 40 -7.66 40 -8 40 C-8.87559321 26.23372902 -6.37634322 12.29723336 0 0 Z M-4 21 C-3 23 -3 23 -3 23 Z " transform="translate(136,211)" />
      <path fill='var(--color-text-primary)' d="M0 0 C3.93873864 4.28350887 3.4867911 8.28364925 3.35546875 13.85546875 C2.86957809 18.1537323 1.99772895 19.9190008 -1 23 C-6.30610902 26.37025386 -13.31020466 25.61288126 -19.3046875 24.6171875 C-21.1875 24.125 -21.1875 24.125 -24 23 C-24.33 22.34 -24.66 21.68 -25 21 C-24.44538086 21.01571045 -23.89076172 21.0314209 -23.31933594 21.04760742 C-20.79632848 21.11012862 -18.27348424 21.14904342 -15.75 21.1875 C-14.87730469 21.21263672 -14.00460938 21.23777344 -13.10546875 21.26367188 C-8.09023491 21.35435857 -8.09023491 21.35435857 -3.453125 19.67578125 C-0.38960161 16.14284702 -0.69059804 11.75623777 -0.4375 7.3125 C-0.39431641 6.61060547 -0.35113281 5.90871094 -0.30664062 5.18554688 C-0.2008264 3.45724794 -0.09993419 1.7286489 0 0 Z " transform="translate(191,382)" />
      <path fill='var(--color-text-primary)' d="M0 0 C0.99 0 1.98 0 3 0 C3 1.65 3 3.3 3 5 C1.94039062 5.04898437 0.88078125 5.09796875 -0.2109375 5.1484375 C-1.59898497 5.22346709 -2.98700451 5.29901485 -4.375 5.375 C-5.42300781 5.42140625 -5.42300781 5.42140625 -6.4921875 5.46875 C-10.70185827 5.59499498 -10.70185827 5.59499498 -14 8 C-15.15770857 14.07041969 -15.20846504 19.95767482 -14 26 C-15.32 25.34 -16.64 24.68 -18 24 C-18.10806144 21.08234109 -18.18732877 18.16868875 -18.25 15.25 C-18.28351563 14.425 -18.31703125 13.6 -18.3515625 12.75 C-18.44931681 6.68923304 -18.44931681 6.68923304 -16.33203125 3.44140625 C-13.46802804 1.67119321 -11.78329519 1.55548903 -8.4375 1.6875 C-7.48746094 1.71199219 -6.53742188 1.73648437 -5.55859375 1.76171875 C-3 2 -3 2 0 3 C0 2.01 0 1.02 0 0 Z " transform="translate(223,371)" />
      <path fill='var(--color-text-primary)' d="M0 0 C0 1.32 0 2.64 0 4 C-0.53367188 4.27150879 -1.06734375 4.54301758 -1.6171875 4.82275391 C-4.08216649 6.08243067 -6.54103586 7.35362447 -9 8.625 C-9.83917969 9.05167969 -10.67835938 9.47835937 -11.54296875 9.91796875 C-17.11825242 12.81365872 -22.10227361 16.06505991 -27 20 C-27.66 19.67 -28.32 19.34 -29 19 C-28.31292969 18.45730469 -27.62585938 17.91460937 -26.91796875 17.35546875 C-26.01691406 16.64003906 -25.11585938 15.92460937 -24.1875 15.1875 C-23.29417969 14.47980469 -22.40085938 13.77210938 -21.48046875 13.04296875 C-18.84027195 10.86844445 -16.56845623 8.67777474 -14.375 6.0625 C-10.37568324 2.58940913 -5.34895427 0 0 0 Z " transform="translate(191,160)" />
      <path fill='var(--color-text-primary)' d="M0 0 C-2 1.33333333 -4 2.66666667 -6 4 C-5.34 4.66 -4.68 5.32 -4 6 C-6.26756723 7.65050138 -8.53878961 9.29550028 -10.8125 10.9375 C-11.77639648 11.64036133 -11.77639648 11.64036133 -12.75976562 12.35742188 C-13.38173828 12.80537109 -14.00371094 13.25332031 -14.64453125 13.71484375 C-15.21534424 14.12855225 -15.78615723 14.54226074 -16.37426758 14.96850586 C-18 16 -18 16 -21 17 C-21.66 16.67 -22.32 16.34 -23 16 C-23 15.34 -23 14.68 -23 14 C-20.73767049 12.09677041 -18.35803163 10.39659094 -15.96875 8.65625 C-15.3190625 8.1096875 -14.669375 7.563125 -14 7 C-14 6.34 -14 5.68 -14 5 C-12.61217515 4.1533966 -11.21430603 3.32324661 -9.8125 2.5 C-9.03519531 2.0359375 -8.25789062 1.571875 -7.45703125 1.09375 C-4.75896614 -0.10729647 -2.9193018 -0.20741043 0 0 Z " transform="translate(199,190)" />
      <path fill='var(--color-text-primary)' d="M0 0 C0.66 0.33 1.32 0.66 2 1 C1.505 1.598125 1.01 2.19625 0.5 2.8125 C-1.28276418 4.97029994 -1.28276418 4.97029994 -1 8 C-2.48551921 10.18052998 -4.24174197 12.02195971 -6 14 C-6.66 13.67 -7.32 13.34 -8 13 C-10.0624994 14.81222534 -10.0624994 14.81222534 -12 17 C-12 17.99 -12 18.98 -12 20 C-13.09375 22.04296875 -13.09375 22.04296875 -14.5 24.1875 C-14.9640625 24.90292969 -15.428125 25.61835938 -15.90625 26.35546875 C-16.2671875 26.89816406 -16.628125 27.44085938 -17 28 C-18.21761167 25.56477666 -18.19044962 23.78065466 -17.75390625 21.1171875 C-14.78942066 12.7920518 -6.22539216 5.96600082 0 0 Z " transform="translate(159,175)" />
      <path fill='var(--color-text-primary)' d="M0 0 C2.64 0.33 5.28 0.66 8 1 C8.12375 2.0209375 8.12375 2.0209375 8.25 3.0625 C9.22332528 6.8746907 10.95807455 9.64070329 13 13 C10 15 10 15 8.015625 14.99609375 C4.91023024 13.46145099 4.20027564 11.14250457 2.75 8.0625 C2.22921875 6.98097656 1.7084375 5.89945312 1.171875 4.78515625 C0 2 0 2 0 0 Z " transform="translate(160,272)" />
      <path fill='var(--color-text-primary)' d="M0 0 C0.66 0 1.32 0 2 0 C1.68991116 1.60463449 1.37683713 3.20869231 1.0625 4.8125 C0.88847656 5.70582031 0.71445313 6.59914062 0.53515625 7.51953125 C0 10 0 10 -1 13 C-1.06937062 15.22818441 -1.08457084 17.45834524 -1.0625 19.6875 C-1.04896484 21.45673828 -1.04896484 21.45673828 -1.03515625 23.26171875 C-1.02355469 24.16535156 -1.01195312 25.06898438 -1 26 C-0.67 26 -0.34 26 0 26 C0 31.94 0 37.88 0 44 C-2 43 -2 43 -3.10546875 39.93359375 C-4.12737024 35.99340637 -4.34332838 32.11951436 -4.3125 28.0625 C-4.31048584 27.33466309 -4.30847168 26.60682617 -4.30639648 25.85693359 C-4.14960468 17.13855832 -2.76097973 8.28293919 0 0 Z " transform="translate(162,225)" />
      <path fill='var(--color-text-primary)' d="M0 0 C0.66 0.33 1.32 0.66 2 1 C2.96088383 3.88265149 3.11670941 5.67662271 3.09765625 8.66796875 C3.09443359 9.56064453 3.09121094 10.45332031 3.08789062 11.37304688 C3.07951172 12.30181641 3.07113281 13.23058594 3.0625 14.1875 C3.05798828 15.12787109 3.05347656 16.06824219 3.04882812 17.03710938 C3.03704626 19.35813712 3.02059558 21.67903644 3 24 C0.36 24 -2.28 24 -5 24 C-5 23.34 -5 22.68 -5 22 C-3.35 22 -1.7 22 0 22 C0 14.74 0 7.48 0 0 Z " transform="translate(159,382)" />
      <path fill='var(--color-text-primary)' d="M0 0 C0.33 0 0.66 0 1 0 C1.61942017 10.16307911 -0.70691871 19.43574651 -4 29 C-6.86984049 23.64296442 -7.17989829 20.7020257 -5.5625 14.75 C-5.27503906 13.67234375 -4.98757813 12.5946875 -4.69140625 11.484375 C-4.46324219 10.66453125 -4.23507812 9.8446875 -4 9 C-3.01 9 -2.02 9 -1 9 C-0.67 6.03 -0.34 3.06 0 0 Z " transform="translate(314,251)" />
      <path fill='var(--color-text-primary)' d="M0 0 C1.98 0 3.96 0 6 0 C5.34 0.66 4.68 1.32 4 2 C3.63168919 3.93257855 3.63168919 3.93257855 3.5859375 6.1328125 C3.52792969 7.34130859 3.52792969 7.34130859 3.46875 8.57421875 C3.42234375 9.83685547 3.42234375 9.83685547 3.375 11.125 C3.31699219 12.39923828 3.31699219 12.39923828 3.2578125 13.69921875 C3.16343506 15.79911684 3.08062414 17.89952891 3 20 C0.36 20 -2.28 20 -5 20 C-5.33 19.34 -5.66 18.68 -6 18 C-4.02 18 -2.04 18 0 18 C0 12.06 0 6.12 0 0 Z " transform="translate(239,386)" />
      <path fill='var(--color-text-primary)' d="M0 0 C0.33 0.66 0.66 1.32 1 2 C0.109375 4.20703125 0.109375 4.20703125 -1.25 6.8125 C-1.71277344 7.70324219 -2.17554688 8.59398437 -2.65234375 9.51171875 C-4.03010219 12.05557998 -5.45185435 14.5555595 -7 17 C-8.65 16.67 -10.3 16.34 -12 16 C-10.87616008 14.06182687 -9.75088679 12.12448482 -8.625 10.1875 C-7.68527344 8.56908203 -7.68527344 8.56908203 -6.7265625 6.91796875 C-3.28015564 1.09338521 -3.28015564 1.09338521 0 0 Z " transform="translate(281,270)" />
      <path fill='var(--color-text-primary)' d="M0 0 C3 2 3 2 4 5 C4.12040604 7.12250645 4.17533819 9.24911587 4.1875 11.375 C4.20167969 12.49648438 4.21585937 13.61796875 4.23046875 14.7734375 C3.99951482 18.00679251 3.51647624 20.14842009 2 23 C1.01 23.66 0.02 24.32 -1 25 C-0.83628906 24.03964844 -0.67257812 23.07929688 -0.50390625 22.08984375 C0.14094818 17.57586275 0.11017662 13.11378358 0.0625 8.5625 C0.05798828 7.73556641 0.05347656 6.90863281 0.04882812 6.05664062 C0.03715811 4.03772854 0.01922718 2.01885426 0 0 Z " transform="translate(309,381)" />
      <path fill='var(--color-text-primary)' d="M0 0 C0.99 0.495 0.99 0.495 2 1 C3.18796163 6.62600697 3.11913877 12.20827026 3.0625 17.9375 C3.05798828 18.81212891 3.05347656 19.68675781 3.04882812 20.58789062 C3.03714834 22.72529047 3.01921689 24.86265463 3 27 C2.01 26.67 1.02 26.34 0 26 C0 17.42 0 8.84 0 0 Z " transform="translate(115,370)" />
      <path fill='var(--color-text-primary)' d="M0 0 C0.66 0 1.32 0 2 0 C4.57792074 5.3901979 6.61504481 10.98370034 7 17 C6.34 17.66 5.68 18.32 5 19 C3 18 3 18 2.1484375 15.6015625 C1.89320313 14.61929688 1.63796875 13.63703125 1.375 12.625 C1.11460937 11.64789063 0.85421875 10.67078125 0.5859375 9.6640625 C0 7 0 7 0 4 C-0.66 3.67 -1.32 3.34 -2 3 C-1.34 2.01 -0.68 1.02 0 0 Z " transform="translate(277,222)" />
      <path fill='var(--color-text-primary)' d="M0 0 C2.57161458 0.03255208 5.14322917 0.06510417 7.71484375 0.09765625 C7.38484375 3.39765625 7.05484375 6.69765625 6.71484375 10.09765625 C3.14280767 8.31163821 1.2813341 7.03078808 -1.28515625 4.09765625 C-1.28515625 3.43765625 -1.28515625 2.77765625 -1.28515625 2.09765625 C-1.94515625 1.76765625 -2.60515625 1.43765625 -3.28515625 1.09765625 C-2.28515625 0.09765625 -2.28515625 0.09765625 0 0 Z " transform="translate(184.28515625,275.90234375)" />
      <path fill='var(--color-text-primary)' d="M0 0 C7.55487065 -0.6374846 13.27667206 4.78868739 18.8671875 9.328125 C26.23769208 15.77998698 26.23769208 15.77998698 28 20 C24.28710699 17.318978 20.70497445 14.72259882 17.5 11.4375 C12.75993845 6.81593999 6.94934146 3.8259372 1 1 C1.99 2.32 2.98 3.64 4 5 C2.68 5 1.36 5 0 5 C0 3.35 0 1.7 0 0 Z " transform="translate(244,190)" />
      <path fill='var(--color-text-primary)' d="M0 0 C0.54140625 0.69480469 1.0828125 1.38960938 1.640625 2.10546875 C4.23413632 5.28724339 6.96236061 8.30170312 9.75 11.3125 C10.25660156 11.86228516 10.76320312 12.41207031 11.28515625 12.97851562 C12.5219813 14.32035412 13.76078625 15.66036721 15 17 C14.67 17.99 14.34 18.98 14 20 C11.95880212 18.38405168 9.95927063 16.7143618 8 15 C8 14.34 8 13.68 8 13 C7.34 13 6.68 13 6 13 C5.4225 11.9275 4.845 10.855 4.25 9.75 C2.51624176 6.6973471 0.6365092 4.35402607 -2 2 C-1.34 1.34 -0.68 0.68 0 0 Z " transform="translate(147,297)" />
      <path fill='var(--color-text-primary)' d="M0 0 C8.75045046 2.24370525 16.84877216 8.49679454 23 15 C23 15.66 23 16.32 23 17 C19.8316623 15.59184991 17.63386295 13.87787814 15.125 11.5 C11.87882126 8.58025264 9.28186408 7.09536058 5 6 C1.9890638 3.9927092 1.36983503 3.16115776 0 0 Z " transform="translate(245,191)" />
      <path fill='var(--color-text-primary)' d="M0 0 C3 1 3 1 4 3 C3.0625 5.125 3.0625 5.125 2 7 C-1.12492251 7.05791844 -4.24970766 7.09356746 -7.375 7.125 C-8.26445313 7.14175781 -9.15390625 7.15851563 -10.0703125 7.17578125 C-10.92109375 7.18222656 -11.771875 7.18867188 -12.6484375 7.1953125 C-13.82672119 7.21102295 -13.82672119 7.21102295 -15.02880859 7.22705078 C-17 7 -17 7 -19 5 C-12.73 5 -6.46 5 0 5 C0 3.35 0 1.7 0 0 Z " transform="translate(131,399)" />
      <path fill='var(--color-text-primary)' d="M0 0 C0 2.70115485 -0.0106614 4.51396967 -1 7 C-2.85546875 7.9765625 -2.85546875 7.9765625 -5.1875 8.625 C-5.99445313 8.86089844 -6.80140625 9.09679687 -7.6328125 9.33984375 C-8.41398437 9.55769531 -9.19515625 9.77554687 -10 10 C-11.175625 10.391875 -12.35125 10.78375 -13.5625 11.1875 C-14.366875 11.455625 -15.17125 11.72375 -16 12 C-16 11.01 -16 10.02 -16 9 C-15.09636719 8.51789063 -14.19273437 8.03578125 -13.26171875 7.5390625 C-12.07026983 6.90112135 -10.87886594 6.2630961 -9.6875 5.625 C-9.09259766 5.30789063 -8.49769531 4.99078125 -7.88476562 4.6640625 C-5.16634112 3.20613651 -2.56932446 1.71288297 0 0 Z " transform="translate(273,321)" />
      <path fill='var(--color-text-primary)' d="M0 0 C0.33 0 0.66 0 1 0 C1.55353075 15.74487472 1.55353075 15.74487472 -2 23 C-2.66 21.68 -3.32 20.36 -4 19 C-3.34 18.67 -2.68 18.34 -2 18 C-2.02320313 17.03578125 -2.04640625 16.0715625 -2.0703125 15.078125 C-2.08835937 13.81484375 -2.10640625 12.5515625 -2.125 11.25 C-2.14820313 9.99703125 -2.17140625 8.7440625 -2.1953125 7.453125 C-2.01537302 4.27179508 -1.68998582 2.63478104 0 0 Z " transform="translate(278,243)" />
      <path fill='var(--color-text-primary)' d="M0 0 C0.66 0.99 1.32 1.98 2 3 C1.68804687 3.53109375 1.37609375 4.0621875 1.0546875 4.609375 C0.66539062 5.31578125 0.27609375 6.0221875 -0.125 6.75 C-0.51945313 7.44609375 -0.91390625 8.1421875 -1.3203125 8.859375 C-2.2585471 11.03747354 -2.2585471 11.03747354 -1.1171875 13.265625 C-0.74851563 13.83796875 -0.37984375 14.4103125 0 15 C-0.66 15.66 -1.32 16.32 -2 17 C-2.66 17 -3.32 17 -4 17 C-4 16.34 -4 15.68 -4 15 C-4.66 15 -5.32 15 -6 15 C-5.61471495 8.83543922 -3.52913975 5.01372252 0 0 Z " transform="translate(141,196)" />
      <path fill='var(--color-text-primary)' d="M0 0 C0.66 0.33 1.32 0.66 2 1 C2.3125 4.25 2.3125 4.25 2 8 C-0.92819997 11.09552568 -3.99847979 12.62805022 -8 14 C-8 16.97 -8 19.94 -8 23 C-8.66 22.67 -9.32 22.34 -10 22 C-10.875 18.6875 -10.875 18.6875 -11 15 C-8.95546704 12.13765385 -6.87459179 10.92868945 -3.8125 9.1875 C-0.62834124 7.18428723 -0.62834124 7.18428723 -0.125 3.25 C-0.08375 2.1775 -0.0425 1.105 0 0 Z " transform="translate(230,91)" />
      <path fill='var(--color-text-primary)' d="M0 0 C0.33 0 0.66 0 1 0 C1 2.31 1 4.62 1 7 C0.34 7 -0.32 7 -1 7 C-1.20625 7.5775 -1.4125 8.155 -1.625 8.75 C-3.53702696 11.87877139 -5.81919401 13.24731098 -9 15 C-9.99 14.67 -10.98 14.34 -12 14 C-12 13.34 -12 12.68 -12 12 C-10.60067793 11.02604837 -9.153755 10.1199312 -7.6875 9.25 C-3.66314919 6.68099618 -1.64688657 4.61128239 0 0 Z " transform="translate(234,72)" />
      <path fill='var(--color-text-primary)' d="M0 0 C0.66 0.33 1.32 0.66 2 1 C2 8.59 2 16.18 2 24 C0.35 24 -1.3 24 -3 24 C-2.34 23.34 -1.68 22.68 -1 22 C-0.62948007 19.6754661 -0.62948007 19.6754661 -0.5859375 16.9921875 C-0.54726563 16.00605469 -0.50859375 15.01992188 -0.46875 14.00390625 C-0.4378125 12.97136719 -0.406875 11.93882812 -0.375 10.875 C-0.33632813 9.83472656 -0.29765625 8.79445313 -0.2578125 7.72265625 C-0.16335234 5.14861689 -0.07778786 2.57458845 0 0 Z " transform="translate(342,382)" />
      <path fill='var(--color-text-primary)' d="M0 0 C0 0.99 0 1.98 0 3 C-1.32 2.67 -2.64 2.34 -4 2 C-6.13586678 5.20380017 -6.23132175 6.01939967 -6.125 9.6875 C-6.10695312 10.49574219 -6.08890625 11.30398438 -6.0703125 12.13671875 C-6.04710937 12.75160156 -6.02390625 13.36648438 -6 14 C-6.99 14 -7.98 14 -9 14 C-9 9.71 -9 5.42 -9 1 C-4.82091936 -1.08954032 -4.19589427 -1.16552619 0 0 Z " transform="translate(182,384)" />
      <path fill='var(--color-text-primary)' d="M0 0 C0 0.66 0 1.32 0 2 C-2.64 2.33 -5.28 2.66 -8 3 C-7.98839844 4.28777344 -7.97679687 5.57554687 -7.96484375 6.90234375 C-7.9554673 8.58072772 -7.94636695 10.25911326 -7.9375 11.9375 C-7.92912109 12.78763672 -7.92074219 13.63777344 -7.91210938 14.51367188 C-7.90888672 15.32255859 -7.90566406 16.13144531 -7.90234375 16.96484375 C-7.89710693 17.7137085 -7.89187012 18.46257324 -7.88647461 19.23413086 C-8 21 -8 21 -9 22 C-10.99958364 22.04080783 -13.00045254 22.04254356 -15 22 C-15 21.34 -15 20.68 -15 20 C-13.35 20 -11.7 20 -10 20 C-10.03480469 18.72382813 -10.06960938 17.44765625 -10.10546875 16.1328125 C-10.13360231 14.46355479 -10.16090293 12.7942829 -10.1875 11.125 C-10.21263672 10.28324219 -10.23777344 9.44148438 -10.26367188 8.57421875 C-10.27817383 7.36572266 -10.27817383 7.36572266 -10.29296875 6.1328125 C-10.31653442 5.01737061 -10.31653442 5.01737061 -10.34057617 3.87939453 C-10.22818604 3.25919434 -10.1157959 2.63899414 -10 2 C-6.3558226 -0.4294516 -4.28758728 -0.16179575 0 0 Z " transform="translate(334,384)" />
      <path fill='var(--color-text-primary)' d="M0 0 C-1.28716647 1.00578589 -2.57988658 2.00446798 -3.875 3 C-4.59429687 3.556875 -5.31359375 4.11375 -6.0546875 4.6875 C-8 6 -8 6 -10 6 C-10.33 6.99 -10.66 7.98 -11 9 C-12.62890625 10.38671875 -12.62890625 10.38671875 -14.5625 11.6875 C-15.52349609 12.34298828 -15.52349609 12.34298828 -16.50390625 13.01171875 C-16.99761719 13.33785156 -17.49132812 13.66398438 -18 14 C-17.51129206 9.80286121 -15.27604306 8.07917094 -12.1875 5.375 C-11.31480469 4.59898437 -10.44210938 3.82296875 -9.54296875 3.0234375 C-4.04761905 -1.34920635 -4.04761905 -1.34920635 0 0 Z " transform="translate(196,201)" />
      <path fill='var(--color-text-primary)' d="M0 0 C2 3 2 3 1.9375 5.9375 C0.55003236 10.46989428 -2.33560669 11.98287076 -6.25 14.375 C-8.70952049 16.65884046 -8.71053912 18.74356511 -9 22 C-9.66 21.34 -10.32 20.68 -11 20 C-10.9162616 16.14803345 -10.5021736 14.5021736 -7.75 11.75 C-5.20530687 10.13064983 -2.84650852 8.97594578 0 8 C0 5.36 0 2.72 0 0 Z " transform="translate(230,58)" />
      <path fill='var(--color-text-primary)' d="M0 0 C0.33 0 0.66 0 1 0 C1.0582253 3.08325358 1.09367134 6.16636505 1.125 9.25 C1.14175781 10.12269531 1.15851563 10.99539062 1.17578125 11.89453125 C1.18222656 12.73886719 1.18867188 13.58320313 1.1953125 14.453125 C1.20578613 15.22817383 1.21625977 16.00322266 1.22705078 16.80175781 C0.97326556 19.25883539 0.22444152 20.87311542 -1 23 C-3 19.25 -3 19.25 -3 17 C-2.34 17 -1.68 17 -1 17 C-1.01160156 15.85660156 -1.02320313 14.71320313 -1.03515625 13.53515625 C-1.04453288 12.04427246 -1.05363321 10.55338691 -1.0625 9.0625 C-1.07087891 8.30775391 -1.07925781 7.55300781 -1.08789062 6.77539062 C-1.09652441 4.85005687 -1.05224333 2.92464419 -1 1 C-0.67 0.67 -0.34 0.34 0 0 Z " transform="translate(284,241)" />
      <path fill='var(--color-text-primary)' d="M0 0 C6.27 0 12.54 0 19 0 C19 0.33 19 0.66 19 1 C21.475 1.495 21.475 1.495 24 2 C24 2.33 24 2.66 24 3 C19.71 3 15.42 3 11 3 C11 5.64 11 8.28 11 11 C10.67 11 10.34 11 10 11 C10 8.03 10 5.06 10 2 C6.7 1.67 3.4 1.34 0 1 C0 0.67 0 0.34 0 0 Z " transform="translate(181,275)" />
      <path fill='var(--color-text-primary)' d="M0 0 C0.33 0 0.66 0 1 0 C1.02685412 2.31243792 1.04632841 4.6249627 1.0625 6.9375 C1.07410156 8.22527344 1.08570313 9.51304687 1.09765625 10.83984375 C1 14 1 14 0 15 C-1.66617115 15.04063832 -3.33388095 15.042721 -5 15 C-5.33 14.34 -5.66 13.68 -6 13 C-4.68 13 -3.36 13 -2 13 C-2.04125 11.783125 -2.0825 10.56625 -2.125 9.3125 C-2.13754508 5.78105873 -1.59998217 3.19996434 0 0 Z " transform="translate(227,391)" />
      <path fill='var(--color-text-primary)' d="M0 0 C4.95 0.33 9.9 0.66 15 1 C15.33 1.99 15.66 2.98 16 4 C11.71 4 7.42 4 3 4 C3 3.34 3 2.68 3 2 C2.01 2 1.02 2 0 2 C0 1.34 0 0.68 0 0 Z " transform="translate(254,382)" />
      <path fill='var(--color-text-primary)' d="M0 0 C0.66 0 1.32 0 2 0 C1.67 0.763125 1.34 1.52625 1 2.3125 C-0.17436686 4.99069135 -0.17436686 4.99069135 0 8 C-1.09375 10.04296875 -1.09375 10.04296875 -2.5 12.1875 C-2.9640625 12.90292969 -3.428125 13.61835938 -3.90625 14.35546875 C-4.2671875 14.89816406 -4.628125 15.44085938 -5 16 C-6.6156651 12.76866981 -5.7953966 10.46565662 -5 7 C-3.54099053 4.35842496 -1.95743252 2.33937058 0 0 Z " transform="translate(147,187)" />
      <path fill='var(--color-text-primary)' d="M0 0 C0.99 0 1.98 0 3 0 C1.62815653 4.06498881 -0.22068459 6.67396561 -3.125 9.8125 C-3.84945313 10.60269531 -4.57390625 11.39289063 -5.3203125 12.20703125 C-5.87460937 12.79871094 -6.42890625 13.39039063 -7 14 C-7.66 13.34 -8.32 12.68 -9 12 C-8.27683594 11.07767578 -8.27683594 11.07767578 -7.5390625 10.13671875 C-6.90742188 9.32847656 -6.27578125 8.52023437 -5.625 7.6875 C-4.99851562 6.88699219 -4.37203125 6.08648437 -3.7265625 5.26171875 C-2.42243282 3.55336788 -1.19218183 1.78827274 0 0 Z " transform="translate(297,295)" />
      <path fill='var(--color-text-primary)' d="M0 0 C0.33 0 0.66 0 1 0 C1 3.3 1 6.6 1 10 C-2.37817425 10.84454356 -4.67465243 11.10844919 -8 10 C-8 9.34 -8 8.68 -8 8 C-6.02 8 -4.04 8 -2 8 C-2.04125 7.05125 -2.0825 6.1025 -2.125 5.125 C-2 2 -2 2 0 0 Z " transform="translate(294,406)" />
      <path fill='var(--color-text-primary)' d="M0 0 C2.34290892 2.48434437 2.97982934 3.77731593 3.29296875 7.234375 C3.25816406 8.39453125 3.22335938 9.5546875 3.1875 10.75 C3.16042969 11.92046875 3.13335937 13.0909375 3.10546875 14.296875 C3.07066406 15.18890625 3.03585938 16.0809375 3 17 C2.34 17 1.68 17 1 17 C0.09586327 13.16275828 -0.10576898 9.62497726 -0.0625 5.6875 C-0.05347656 4.61886719 -0.04445312 3.55023438 -0.03515625 2.44921875 C-0.02355469 1.64097656 -0.01195312 0.83273437 0 0 Z " transform="translate(191,382)" />
      <path fill='var(--color-text-primary)' d="M0 0 C0.99 0 1.98 0 3 0 C2.51149865 5.90058204 1.66776668 10.66446664 -1 16 C-1.66 16.33 -2.32 16.66 -3 17 C-2.07751938 12.25581395 -2.07751938 12.25581395 -1.375 9.9375 C-0.84515109 7.97666796 -0.84515109 7.97666796 -1.5625 6 C-2.13666014 3.37526794 -1.36168444 2.24277438 0 0 Z " transform="translate(307,274)" />
      <path fill='var(--color-text-primary)' d="M0 0 C0.66 0 1.32 0 2 0 C2 1.32 2 2.64 2 4 C-1.64823039 6.33486745 -4.74410043 6.30399283 -9 6 C-11.21875 4.984375 -11.21875 4.984375 -13 4 C-12.14535156 3.79503906 -11.29070312 3.59007812 -10.41015625 3.37890625 C-9.30542969 3.10949219 -8.20070312 2.84007812 -7.0625 2.5625 C-5.40927734 2.16224609 -5.40927734 2.16224609 -3.72265625 1.75390625 C-1.10578746 1.27004275 -1.10578746 1.27004275 0 0 Z " transform="translate(217,401)" />
      <path fill='var(--color-text-primary)' d="M0 0 C0.33 0 0.66 0 1 0 C1 1.65 1 3.3 1 5 C-2.63465602 7.32617985 -5.76036719 7.31404687 -10 7 C-10.66 6.34 -11.32 5.68 -12 5 C-11.30132812 4.80664062 -10.60265625 4.61328125 -9.8828125 4.4140625 C-8.97273437 4.15367187 -8.06265625 3.89328125 -7.125 3.625 C-6.22007812 3.36976563 -5.31515625 3.11453125 -4.3828125 2.8515625 C-1.85430274 2.1395685 -1.85430274 2.1395685 0 0 Z " transform="translate(151,400)" />
      <path fill='var(--color-text-primary)' d="M0 0 C0.33 0 0.66 0 1 0 C1.1875 2.375 1.1875 2.375 1 5 C-2.68717438 7.45811625 -4.64345704 7.31118164 -9 7 C-9.99 6.34 -10.98 5.68 -12 5 C-11.07767578 4.83564453 -11.07767578 4.83564453 -10.13671875 4.66796875 C-9.32847656 4.50941406 -8.52023437 4.35085938 -7.6875 4.1875 C-6.88699219 4.03667969 -6.08648437 3.88585937 -5.26171875 3.73046875 C-2.75555938 2.92105286 -1.72595521 1.93838046 0 0 Z " transform="translate(270,400)" />
      <path fill='var(--color-text-primary)' d="M0 0 C0.66 0.66 1.32 1.32 2 2 C0.02 2.99 0.02 2.99 -2 4 C-1.34 2.68 -0.68 1.36 0 0 Z M-3 4 C-1.68776504 7.93670488 -2.75703744 10.12488144 -4 14 C-4.33 13.34 -4.66 12.68 -5 12 C-5.66 12 -6.32 12 -7 12 C-7 12.99 -7 13.98 -7 15 C-7.66 15 -8.32 15 -9 15 C-7.54955729 10.89041233 -5.48889248 7.56741255 -3 4 Z " transform="translate(173,208)" />
      <path fill='var(--color-text-primary)' d="M0 0 C3.63 0 7.26 0 11 0 C11.33 0.99 11.66 1.98 12 3 C7.71 3 3.42 3 -1 3 C-0.67 2.01 -0.34 1.02 0 0 Z " transform="translate(139,383)" />
      <path fill='var(--color-text-primary)' d="M0 0 C0.99 0 1.98 0 3 0 C3 1.65 3 3.3 3 5 C-2.69051363 4.4618629 -8.34865884 3.8599867 -14 3 C-14 2.67 -14 2.34 -14 2 C-12.22925083 1.97294271 -10.45838289 1.95357805 -8.6875 1.9375 C-7.70136719 1.92589844 -6.71523437 1.91429687 -5.69921875 1.90234375 C-3 2 -3 2 0 3 C0 2.01 0 1.02 0 0 Z " transform="translate(223,371)" />
      <path fill='var(--color-text-primary)' d="M0 0 C0.66 0 1.32 0 2 0 C1.125 5.875 1.125 5.875 0 7 C-1.68183948 7.23287008 -3.3712416 7.41264166 -5.0625 7.5625 C-5.98160156 7.64628906 -6.90070313 7.73007812 -7.84765625 7.81640625 C-8.55792969 7.87699219 -9.26820313 7.93757813 -10 8 C-10 7.34 -10 6.68 -10 6 C-7.36 5.67 -4.72 5.34 -2 5 C-1.855625 4.360625 -1.71125 3.72125 -1.5625 3.0625 C-1 1 -1 1 0 0 Z " transform="translate(251,379)" />
      <path fill='var(--color-text-primary)' d="M0 0 C0.66 0.33 1.32 0.66 2 1 C3.28317892 4.84953676 3.06643637 7.94738135 3 12 C2.34 12 1.68 12 1 12 C1 12.66 1 13.32 1 14 C0.34 13.67 -0.32 13.34 -1 13 C-0.67 8.71 -0.34 4.42 0 0 Z " transform="translate(173,367)" />
      <path fill='var(--color-text-primary)' d="M0 0 C0.33 0 0.66 0 1 0 C0.70887831 6.41923331 -0.45215029 10.62100206 -4 16 C-4.66 15.01 -5.32 14.02 -6 13 C-5.566875 12.34 -5.13375 11.68 -4.6875 11 C-2.67535337 7.42285044 -1.37571305 3.86509858 0 0 Z " transform="translate(309,280)" />
      <path fill='var(--color-text-primary)' d="M0 0 C0.33 0 0.66 0 1 0 C1.33 1.98 1.66 3.96 2 6 C2.33 6 2.66 6 3 6 C3 7.98 3 9.96 3 12 C0.36 12 -2.28 12 -5 12 C-5 11.34 -5 10.68 -5 10 C-3.35 10 -1.7 10 0 10 C0 6.7 0 3.4 0 0 Z " transform="translate(159,394)" />
      <path fill='var(--color-text-primary)' d="M0 0 C0 2.66666667 0 5.33333333 0 8 C-3.75 10 -3.75 10 -6 10 C-6.99 10.495 -6.99 10.495 -8 11 C-6.63629701 8.00779732 -5.05091917 5.70973471 -2.875 3.25 C-2.33617187 2.63640625 -1.79734375 2.0228125 -1.2421875 1.390625 C-0.62730469 0.70226562 -0.62730469 0.70226562 0 0 Z " transform="translate(297,300)" />
      <path fill='var(--color-text-primary)' d="M0 0 C3.33717549 1.3809002 5.22301036 2.8201238 7 6 C6.6875 8.25 6.6875 8.25 6 10 C6 9.34 6 8.68 6 8 C4.35 8.33 2.7 8.66 1 9 C0 6 0 6 1 3 C0.67 2.01 0.34 1.02 0 0 Z " transform="translate(264,214)" />
      <path fill='var(--color-text-primary)' d="M0 0 C4.51617599 -0.07654536 8.59085217 -0.10228696 13 1 C13 1.33 13 1.66 13 2 C12.31292969 2.04898437 11.62585938 2.09796875 10.91796875 2.1484375 C9.56638672 2.26058594 9.56638672 2.26058594 8.1875 2.375 C7.29417969 2.44460938 6.40085938 2.51421875 5.48046875 2.5859375 C2.75601501 2.86645036 2.75601501 2.86645036 0 5 C-0.66 4.67 -1.32 4.34 -2 4 C-1.34 2.68 -0.68 1.36 0 0 Z " transform="translate(208,374)" />
      <path fill='var(--color-text-primary)' d="M0 0 C-1.41519715 2.0343459 -2.54982123 2.90410393 -4.98046875 3.421875 C-6.98176954 3.66273952 -8.9909944 3.83532741 -11 4 C-11.33 3.01 -11.66 2.02 -12 1 C-10.56496445 0.63597631 -9.12683494 0.28413409 -7.6875 -0.0625 C-6.88699219 -0.25972656 -6.08648437 -0.45695312 -5.26171875 -0.66015625 C-3 -1 -3 -1 0 0 Z " transform="translate(246,339)" />
      <path fill='var(--color-text-primary)' d="M0 0 C0.33 0.99 0.66 1.98 1 3 C-0.78673205 4.5058745 -2.57953508 6.0045485 -4.375 7.5 C-5.37273437 8.3353125 -6.37046875 9.170625 -7.3984375 10.03125 C-10 12 -10 12 -12 12 C-10.79950715 8.39852146 -9.5666278 7.66295787 -6.5625 5.4375 C-4.22615683 3.69368046 -2.06251649 2.06251649 0 0 Z " transform="translate(288,314)" />
      <path fill='var(--color-text-primary)' d="M0 0 C1.1171875 1.734375 1.1171875 1.734375 2 4 C1.3203125 6.140625 1.3203125 6.140625 0.125 8.25 C-0.26429688 8.95640625 -0.65359375 9.6628125 -1.0546875 10.390625 C-1.36664063 10.92171875 -1.67859375 11.4528125 -2 12 C-3.1171875 10.265625 -3.1171875 10.265625 -4 8 C-3.3203125 5.859375 -3.3203125 5.859375 -2.125 3.75 C-1.73570312 3.04359375 -1.34640625 2.3371875 -0.9453125 1.609375 C-0.63335937 1.07828125 -0.32140625 0.5471875 0 0 Z " transform="translate(305,280)" />
      <path fill='var(--color-text-primary)' d="M0 0 C3 1 3 1 4.09765625 3.14453125 C4.41605469 4.02496094 4.73445312 4.90539062 5.0625 5.8125 C6.22776964 8.98072307 7.43105022 12.00853576 9 15 C6 14 6 14 4.39453125 11.34765625 C3.87246094 10.26355469 3.35039062 9.17945313 2.8125 8.0625 C2.28269531 6.98097656 1.75289062 5.89945312 1.20703125 4.78515625 C0 2 0 2 0 0 Z " transform="translate(160,272)" />
      <path fill='var(--color-text-primary)' d="M0 0 C3 2 3 2 4 5 C4.06740865 6.56118428 4.08514456 8.1250252 4.0625 9.6875 C4.05347656 10.49574219 4.04445313 11.30398438 4.03515625 12.13671875 C4.02355469 12.75160156 4.01195312 13.36648438 4 14 C3.01 14 2.02 14 1 14 C0.67 9.38 0.34 4.76 0 0 Z " transform="translate(309,381)" />
      <path fill='var(--color-text-primary)' d="M0 0 C1.32 0.66 2.64 1.32 4 2 C2.56839732 3.00842453 1.12948547 4.00647891 -0.3125 5 C-1.51326172 5.8353125 -1.51326172 5.8353125 -2.73828125 6.6875 C-5 8 -5 8 -8 8 C-6.49776416 3.79373966 -3.71449966 2.26099979 0 0 Z " transform="translate(173,167)" />
      <path fill='var(--color-text-primary)' d="M0 0 C0 0.99 0 1.98 0 3 C-2.31 2.67 -4.62 2.34 -7 2 C-7 3.32 -7 4.64 -7 6 C-7.99 5.67 -8.98 5.34 -10 5 C-9.625 3.0625 -9.625 3.0625 -9 1 C-6.04335481 -0.4783226 -3.25770263 -0.06032783 0 0 Z " transform="translate(270,392)" />
      <path fill='var(--color-text-primary)' d="M0 0 C0.99 0.33 1.98 0.66 3 1 C3.72045764 2.9812585 4.38001259 4.98504093 5 7 C5.9563874 8.69207001 6.94410931 10.36816893 8 12 C7.01 12 6.02 12 5 12 C4.15885829 10.56705502 3.32734313 9.12845595 2.5 7.6875 C1.80390625 6.48673828 1.80390625 6.48673828 1.09375 5.26171875 C0 3 0 3 0 0 Z " transform="translate(165,273)" />
      <path fill='var(--color-text-primary)' d="M0 0 C0.99 0.33 1.98 0.66 3 1 C2.01 1.495 2.01 1.495 1 2 C0.28293018 3.98248715 -0.38290413 5.98415349 -1 8 C-1.33 8.66 -1.66 9.32 -2 10 C-2.66 10 -3.32 10 -4 10 C-4.41176754 6.39703406 -4.1535853 5.21597933 -2 2.1875 C-1.34 1.465625 -0.68 0.74375 0 0 Z " transform="translate(175,216)" />
      <path fill='var(--color-text-primary)' d="M0 0 C0.99 0.33 1.98 0.66 3 1 C1.71372289 2.17260611 0.42080217 3.3379283 -0.875 4.5 C-1.95394531 5.47453125 -1.95394531 5.47453125 -3.0546875 6.46875 C-5 8 -5 8 -7 8 C-7.33 8.99 -7.66 9.98 -8 11 C-8.66 10.34 -9.32 9.68 -10 9 C-8.71372289 7.82739389 -7.42080217 6.6620717 -6.125 5.5 C-5.40570313 4.8503125 -4.68640625 4.200625 -3.9453125 3.53125 C-2 2 -2 2 0 2 C0 1.34 0 0.68 0 0 Z " transform="translate(183,196)" />
      <path fill='var(--color-text-primary)' d="M0 0 C0.75 1.75 0.75 1.75 1 4 C-0.8125 6.125 -0.8125 6.125 -3 8 C-3.66 8.66 -4.32 9.32 -5 10 C-5.99 9.34 -6.98 8.68 -8 8 C-5.33333333 5.33333333 -2.66666667 2.66666667 0 0 Z " transform="translate(278,317)" />
      <path fill='var(--color-text-primary)' d="M0 0 C1.32 0 2.64 0 4 0 C3.43454163 3.95820859 2.19097652 6.6659053 0 10 C-0.66 9.67 -1.32 9.34 -2 9 C-2 8.34 -2 7.68 -2 7 C-1.34 7 -0.68 7 0 7 C0.33 5.68 0.66 4.36 1 3 C0.34 2.67 -0.32 2.34 -1 2 C-0.67 1.34 -0.34 0.68 0 0 Z " transform="translate(268,274)" />
      <path fill='var(--color-text-primary)' d="M0 0 C0 0.66 0 1.32 0 2 C-3.3 2.66 -6.6 3.32 -10 4 C-7.26826666 -1.46346667 -5.50804693 -1.3397952 0 0 Z " transform="translate(224,272)" />
      <path fill='var(--color-text-primary)' d="M0 0 C5.53846154 0.61538462 5.53846154 0.61538462 7.875 2.5625 C8.431875 3.2740625 8.431875 3.2740625 9 4 C5.23375329 5.25541557 3.62811066 4.37061958 0 3 C0 2.01 0 1.02 0 0 Z " transform="translate(252,158)" />
      <path fill='var(--color-text-primary)' d="M0 0 C2.68092691 2.68092691 2.38670257 4.39167363 2.625 8.125 C2.69976562 9.22070312 2.77453125 10.31640625 2.8515625 11.4453125 C2.90054688 12.28835938 2.94953125 13.13140625 3 14 C1.68 13.34 0.36 12.68 -1 12 C-0.67 8.04 -0.34 4.08 0 0 Z " transform="translate(206,383)" />
      <path fill='var(--color-text-primary)' d="M0 0 C0.66 0.33 1.32 0.66 2 1 C1.2575 1.8971875 1.2575 1.8971875 0.5 2.8125 C-1.28276418 4.97029994 -1.28276418 4.97029994 -1 8 C-1.99 8 -2.98 8 -4 8 C-4.33 7.01 -4.66 6.02 -5 5 C-3.35 3.35 -1.7 1.7 0 0 Z " transform="translate(159,175)" />
      <path fill='var(--color-text-primary)' d="M0 0 C3 1 3 1 4 3 C3.0625 5.125 3.0625 5.125 2 7 C0.68 6.67 -0.64 6.34 -2 6 C-1.34 5.67 -0.68 5.34 0 5 C0 3.35 0 1.7 0 0 Z " transform="translate(131,399)" />
      <path fill='var(--color-text-primary)' d="M0 0 C1.32 0.66 2.64 1.32 4 2 C3.3125 3.9375 3.3125 3.9375 2 6 C-0.625 6.75 -0.625 6.75 -3 7 C-1.125 1.125 -1.125 1.125 0 0 Z " transform="translate(140,203)" />
      <path fill='var(--color-text-primary)' d="M0 0 C0.33 0 0.66 0 1 0 C1 3.3 1 6.6 1 10 C0.01 10 -0.98 10 -2 10 C-2.22036864 6.14354879 -1.60355101 3.50776784 0 0 Z " transform="translate(227,391)" />
      <path fill='var(--color-text-primary)' d="M0 0 C0.99 0.33 1.98 0.66 3 1 C2.34 3.97 1.68 6.94 1 10 C-0.46132217 7.07735566 -1.34099246 5.07536854 -2 2 C-1.34 2 -0.68 2 0 2 C0 1.34 0 0.68 0 0 Z " transform="translate(309,270)" />
      <path fill='var(--color-text-primary)' d="M0 0 C0.66 0 1.32 0 2 0 C2 0.99 2 1.98 2 3 C2.66 3.33 3.32 3.66 4 4 C2.35 5.32 0.7 6.64 -1 8 C-0.67 5.36 -0.34 2.72 0 0 Z " transform="translate(168,228)" />
      <path fill='var(--color-text-primary)' d="M0 0 C0.66 0.33 1.32 0.66 2 1 C-0.97 3.64 -3.94 6.28 -7 9 C-7.66 8.67 -8.32 8.34 -9 8 C-7.87811441 6.85111717 -6.75238316 5.70598863 -5.625 4.5625 C-4.99851563 3.92441406 -4.37203125 3.28632813 -3.7265625 2.62890625 C-2 1 -2 1 0 0 Z " transform="translate(166,172)" />
      <path fill='var(--color-text-primary)' d="M0 0 C0.66 0.33 1.32 0.66 2 1 C2.25 4.3125 2.25 4.3125 2 8 C0 9.9375 0 9.9375 -2 11 C-2.66 10.34 -3.32 9.68 -4 9 C-3.34 8.443125 -2.68 7.88625 -2 7.3125 C0.25492211 5.15937692 0.25492211 5.15937692 0.25 2.25 C0.1675 1.5075 0.085 0.765 0 0 Z " transform="translate(230,91)" />
      <path fill='var(--color-text-primary)' d="M0 0 C0.33 0 0.66 0 1 0 C1.75 3.25 1.75 3.25 2 7 C0.0625 9.4375 0.0625 9.4375 -2 11 C-1.34 7.37 -0.68 3.74 0 0 Z " transform="translate(191,394)" />
      <path fill='var(--color-text-primary)' d="M0 0 C0.66 0 1.32 0 2 0 C2.33 2.97 2.66 5.94 3 9 C2.01 8.67 1.02 8.34 0 8 C0 5.36 0 2.72 0 0 Z " transform="translate(115,388)" />
      <path fill='var(--color-text-primary)' d="M0 0 C2.35448165 2.55068845 2.98327924 3.71017358 3.1875 7.25 C3.125625 8.1575 3.06375 9.065 3 10 C1.5 8.9375 1.5 8.9375 0 7 C-0.1875 3.3125 -0.1875 3.3125 0 0 Z " transform="translate(191,382)" />
      <path fill='var(--color-text-primary)' d="M0 0 C0 0.99 0 1.98 0 3 C-0.556875 2.814375 -1.11375 2.62875 -1.6875 2.4375 C-4.399133 1.92448835 -6.34371039 2.3359276 -9 3 C-9 2.34 -9 1.68 -9 1 C-5.64919071 -1.10976881 -3.77897651 -1.0497157 0 0 Z " transform="translate(182,384)" />
      <path fill='var(--color-text-primary)' d="M0 0 C0.66 0.33 1.32 0.66 2 1 C-0.36292656 3.52588702 -1.66462511 4.88820837 -5 6 C-5.33 5.01 -5.66 4.02 -6 3 C-4.03533587 1.93224776 -2.03144641 0.93446535 0 0 Z " transform="translate(183,164)" />
      <path fill='var(--color-text-primary)' d="M0 0 C0.66 1.32 1.32 2.64 2 4 C1.01 5.32 0.02 6.64 -1 8 C-1.66 7.67 -2.32 7.34 -3 7 C-2.38722388 4.03824877 -1.74627478 2.61941217 0 0 Z " transform="translate(299,299)" />
      <path fill='var(--color-text-primary)' d="M0 0 C0.66 0.66 1.32 1.32 2 2 C1.34 2.66 0.68 3.32 0 4 C-0.39764263 5.98821313 -0.73775349 7.98944339 -1 10 C-1.66 9.34 -2.32 8.68 -3 8 C-2.54545455 2.54545455 -2.54545455 2.54545455 0 0 Z " transform="translate(222,70)" />
      <path fill='var(--color-text-primary)' d="M0 0 C0.66 0 1.32 0 2 0 C1.625 1.9375 1.625 1.9375 1 4 C-1.70879335 5.35439668 -4.00933268 5.06501451 -7 5 C-6.401875 4.731875 -5.80375 4.46375 -5.1875 4.1875 C-2.95672092 3.1106021 -2.95672092 3.1106021 -1.375 1.375 C-0.694375 0.694375 -0.694375 0.694375 0 0 Z " transform="translate(307,402)" />
      <path fill='var(--color-text-primary)' d="M0 0 C0 1.65 0 3.3 0 5 C-1.65 5.33 -3.3 5.66 -5 6 C-5 5.01 -5 4.02 -5 3 C-1.55555556 0 -1.55555556 0 0 0 Z " transform="translate(152,400)" />
      <path fill='var(--color-text-primary)' d="M0 0 C0.99 0.33 1.98 0.66 3 1 C2.44855089 5.08072342 2.08669204 5.91330796 -1 9 C-0.67 6.03 -0.34 3.06 0 0 Z " transform="translate(142,194)" />
      <path fill='var(--color-text-primary)' d="M0 0 C1.65 0 3.3 0 5 0 C5.33 0.99 5.66 1.98 6 3 C3.525 2.01 3.525 2.01 1 1 C1.99 2.32 2.98 3.64 4 5 C2.68 5 1.36 5 0 5 C0 3.35 0 1.7 0 0 Z " transform="translate(244,190)" />
      <path fill='var(--color-text-primary)' d="M0 0 C1.98 0 3.96 0 6 0 C4.515 2.475 4.515 2.475 3 5 C2.01 4.67 1.02 4.34 0 4 C0 2.68 0 1.36 0 0 Z " transform="translate(239,386)" />
      <path fill='var(--color-text-primary)' d="M0 0 C0.66 0.99 1.32 1.98 2 3 C0.35 4.65 -1.3 6.3 -3 8 C-1.125 1.125 -1.125 1.125 0 0 Z " transform="translate(292,308)" />
      <path fill='var(--color-text-primary)' d="M0 0 C1 4 1 4 1 4 Z " transform="translate(308,223)" />
      <path fill='var(--color-text-primary)' d="" transform="translate(0,0)" />
      <path fill='var(--color-text-primary)' d="M0 0 C0.33 0.66 0.66 1.32 1 2 C0.34 1.67 -0.32 1.34 -1 1 C-0.67 0.67 -0.34 0.34 0 0 Z " transform="translate(217,107)" />
      <path fill='var(--color-text-primary)' d="" transform="translate(0,0)" />
      <path fill='var(--color-text-primary)' d="M0 0 C2 1 2 1 2 1 Z " transform="translate(233,70)" />
      <path fill='var(--color-text-primary)' d="" transform="translate(0,0)" />
      <path fill='var(--color-text-primary)' d="" transform="translate(0,0)" />
      <path fill='var(--color-text-primary)' d="" transform="translate(0,0)" />
    </svg>
