<?xml version="1.0"?>
<svg width="300" height="300" xmlns="http://www.w3.org/2000/svg" xmlns:svg="http://www.w3.org/2000/svg">
 <g class="layer">
  <path d="m162.5,58.31c0.87,0.03 1.73,0.07 2.62,0.1c4.58,0.25 8.63,0.7 12.88,2.59c2.47,3.42 3.01,5.39 2.94,9.62c-1.03,3.69 -1.85,5.17 -4.94,7.38c-1.32,0 -2.64,0 -4,0c0.33,17.82 0.66,35.64 1,54c3.96,1.98 7.92,3.96 12,6c7,5.19 14.12,10.67 19,18c3.09,-1.2 6.05,-2.5 9,-4c-0.18,1.79 -0.18,1.79 -0.36,3.63c-0.83,9.78 -0.48,17.22 2.42,26.63c3.94,15.68 -0.17,31.9 -8.07,45.66c-10.71,16.56 -24.1,25.91 -42.99,31.08c-3.03,0.62 -5.91,0.92 -9,1c-0.86,0.04 -1.72,0.07 -2.6,0.11c-18.31,0.47 -35.25,-6.2 -48.59,-18.74c-6.99,-7.3 -12.33,-15.52 -14.81,-25.37c-0.71,-0.12 -1.42,-0.24 -2.15,-0.37c-1.38,-0.25 -1.38,-0.25 -2.79,-0.51c-1.37,-0.24 -1.37,-0.24 -2.77,-0.49c-0.76,-0.21 -1.51,-0.42 -2.29,-0.63c-0.33,-0.66 -0.66,-1.32 -1,-2c2.97,0.33 5.94,0.66 9,1c-0.22,-0.9 -0.22,-0.9 -0.44,-1.81c-4.18,-19.53 -1.28,-37.2 9.44,-54.19c3.87,-5.71 8.23,-11.12 14,-15c0.66,0 1.32,0 2,0c0,-0.66 0,-1.32 0,-2c5.28,-2.64 10.56,-5.28 16,-8c0.33,-17.49 0.66,-34.98 1,-53c-1.98,-0.66 -3.96,-1.32 -6,-2c-2.27,-2.72 -2.94,-4.49 -3.38,-8c0.44,-3.51 1.11,-5.28 3.38,-8c5.24,-2.31 10.43,-2.48 16.06,-2.69c1.44,-0.06 1.44,-0.06 2.9,-0.12c6.86,-0.23 13.68,-0.18 20.54,0.12zm-55.25,93.31c-12.2,12.9 -17.53,28.8 -17.19,46.38c0.4,5.85 1.61,10.63 3.94,16c1.48,-0.5 1.48,-0.5 3,-1c-0.22,-0.89 -0.43,-1.77 -0.66,-2.68c-3.49,-15.04 -3.44,-30.58 4.41,-44.47c7.65,-11.35 16.05,-18.73 28.25,-24.85c0,-0.99 0,-1.98 0,-3c-7.6,0 -16.52,8.66 -21.75,13.62zm64.75,-13.62c0.24,1.95 0.24,1.95 1,4c1.86,0.94 3.72,1.88 5.62,2.75c8.17,4.28 14.16,10.78 19.38,18.25c0.66,-0.33 1.32,-0.66 2,-1c-1.01,-6.77 -7.52,-11.95 -12.54,-16.1c-4.94,-3.6 -9.64,-6.07 -15.46,-7.9zm27,26c0.99,1.32 1.98,2.64 3,4c0.33,-1.32 0.66,-2.64 1,-4c-1.32,0 -2.64,0 -4,0zm5,6c-1.29,3.88 -0.37,5.4 0.94,9.25c5.38,18.11 0.01,32.6 -7.94,48.75c0.99,0 1.98,0 3,0c9.99,-11.8 10.97,-26.93 10.2,-41.64c-0.4,-4.68 -1.52,-8.99 -3.2,-13.36c-0.33,-0.99 -0.66,-1.98 -1,-3c-0.66,0 -1.32,0 -2,0zm-108,48c1.14,3.87 2.23,7 5,10c0.66,0 1.32,0 2,0c-0.71,-3.67 -2.28,-6.71 -4,-10c-0.99,0 -1.98,0 -3,0z" fill="var(--color-background)" id="svg_1"/>
  <path d="m213,152c-0.18,1.8 -0.18,1.8 -0.36,3.63c-0.83,9.78 -0.48,17.22 2.42,26.63c3.94,15.68 -0.17,31.91 -8.07,45.67c-10.71,16.56 -24.1,25.91 -42.99,31.07c-3.03,0.62 -5.91,0.92 -9,1c-0.86,0.04 -1.72,0.08 -2.6,0.12c-18.31,0.46 -35.25,-6.2 -48.59,-18.74c-6.99,-7.31 -12.33,-15.53 -14.81,-25.38c-1.07,-0.18 -1.07,-0.18 -2.15,-0.37c-0.92,-0.16 -1.84,-0.33 -2.79,-0.5c-0.91,-0.17 -1.83,-0.33 -2.77,-0.5c-0.76,-0.21 -1.51,-0.41 -2.29,-0.63c-0.33,-0.66 -0.66,-1.32 -1,-2c0.78,0.16 1.57,0.33 2.37,0.5c4.57,0.63 9.03,0.58 13.63,0.5c0,0.66 0,1.32 0,2c8.58,0 17.16,0 26,0c0,-8.58 0,-17.16 0,-26c12.5,-6 12.5,-6 17,-6c0,9.57 0,19.14 0,29c2.47,-0.49 2.47,-0.49 5,-1c0.33,-12.54 0.66,-25.08 1,-38c13,-6 13,-6 16,-5c0,12.21 0,24.42 0,37c1.32,-0.33 2.64,-0.66 4,-1c0,-2.64 0,-5.28 0,-8c1.49,-0.66 3,-1.3 4.5,-1.94c1.25,-0.54 1.25,-0.54 2.53,-1.09c2.97,-0.97 2.97,-0.97 6.9,-1.22c4.98,-0.54 7.37,-3.17 10.63,-6.75c0.56,-0.59 1.12,-1.17 1.69,-1.78c8.23,-8.72 8.23,-8.72 13.75,-19.22c-1.32,-0.33 -2.64,-0.66 -4,-1c0.66,-0.33 1.32,-0.66 2,-1c0,-0.66 0,-1.32 0,-2c0.8,-0.27 1.61,-0.54 2.44,-0.81c1.27,-0.59 1.27,-0.59 2.56,-1.19c0.33,-0.99 0.66,-1.98 1,-3c3.44,-3 3.44,-3 6,-3zm-9,18c-1.29,3.88 -0.37,5.41 0.94,9.25c5.38,18.11 0.01,32.6 -7.94,48.75c0.99,0 1.98,0 3,0c9.99,-11.8 10.97,-26.93 10.2,-41.64c-0.4,-4.68 -1.52,-8.99 -3.2,-13.36c-0.33,-0.99 -0.66,-1.98 -1,-3c-0.66,0 -1.32,0 -2,0zm-108,48c1.14,3.87 2.23,7 5,10c0.66,0 1.32,0 2,0c-0.71,-3.67 -2.28,-6.7 -4,-10c-0.99,0 -1.98,0 -3,0z" fill="var(--color-text-primary)" id="svg_2"/>
  <path d="m177,205c0.66,0 1.32,0 2,0c0,8.25 0,16.5 0,25c0.99,0 1.98,0 3,0c0,-0.66 0,-1.32 0,-2c2.19,-2.69 2.19,-2.69 5,-5c4.43,-0.11 7.57,2.37 11,5c0,0.66 0,1.32 0,2c1.65,0.66 3.3,1.32 5,2c-3.51,7.51 -9.27,12.38 -16,17c-0.58,0.43 -1.16,0.86 -1.76,1.31c-8.48,5.9 -19.94,9.43 -30.24,9.69c-1.29,0.06 -1.29,0.06 -2.6,0.12c-17.08,0.43 -33.37,-5.29 -46.24,-16.62c-7.39,-7.13 -7.39,-7.13 -9.16,-12.5c0.97,-0.62 1.94,-1.24 2.94,-1.87c3.09,-1.79 3.09,-1.79 4.06,-4.13c2.43,-1.25 4.25,-2.02 7,-1.94c2.92,1.37 4.76,3.64 7,5.94c0.99,0.33 1.98,0.66 3,1c0,-2.64 0,-5.28 0,-8c5.28,-0.33 10.56,-0.66 16,-1c0,6.6 0,13.2 0,20c1.65,0 3.3,0 5,0c0,-6.93 0,-13.86 0,-21c12.5,-4 12.5,-4 17,-4c0,8.25 0,16.5 0,25c1.32,0 2.64,0 4,0c0,-9.24 0,-18.48 0,-28c6.44,-3.44 6.44,-3.44 8.47,-4.52c2.95,-1.47 2.95,-1.47 5.53,-3.48z" fill="var(--color-text-primary)" id="svg_3"/>
  <path d="m181,102c4.98,0.54 8.9,2.19 13.25,4.56c0.66,0.36 1.31,0.71 1.99,1.08c5.77,3.2 10.8,7.01 15.76,11.36c0.54,0.43 1.07,0.87 1.63,1.32c4.42,3.62 7.92,7.52 11.31,12.12c0.51,0.69 1.03,1.39 1.56,2.11c8.43,11.66 13.86,23.56 17.5,37.45c0.25,0.88 0.49,1.77 0.75,2.68c5.26,22.71 0.01,48.17 -11.94,67.95c-17.06,25.2 -17.06,25.2 -27.66,27.83c-2.51,0.63 -4.6,1.64 -6.92,2.79c-0.91,0.44 -1.82,0.89 -2.75,1.34c-1.9,0.94 -3.79,1.88 -5.68,2.82c-4.67,2.27 -8.6,3.91 -13.8,4.59c-0.33,0.66 -0.66,1.32 -1,2c-15.03,8 -36.42,4.53 -52,-0.19c-24.93,-8.02 -43.95,-24.59 -56.22,-47.61c-12.2,-23.83 -15.2,-49.54 -6.94,-75.23c5.5,-16.14 14.9,-31.05 28.16,-41.97c1.33,-0.36 2.66,-0.69 4,-1c2.23,-1.38 4.4,-2.78 6.56,-4.25c14.76,-9.75 14.76,-9.75 21.44,-9.75c0,1.32 0,2.64 0,4c-0.78,0.38 -0.78,0.38 -1.57,0.78c-10.41,5.18 -19.87,10.24 -28.43,18.22c-0.61,0.52 -1.23,1.05 -1.86,1.59c-13.75,12.42 -20.34,30.63 -25.16,47.99c-0.98,3.42 -0.98,3.42 -1.98,5.42c-0.1,1.58 -0.13,3.17 -0.13,4.76c0,0.96 -0.01,1.91 -0.01,2.89c0.01,1.01 0.01,2.01 0.01,3.04c0,0.98 0,1.96 -0.01,2.97c0.01,5.22 0.23,10.2 1.14,15.34c0.66,0 1.32,0 2,0c0.36,1.17 0.73,2.34 1.1,3.55c7.7,24.29 21.36,43.86 43.9,56.45c21.83,11.16 46.06,13.41 69.43,5.9c11.37,-4.15 22.74,-9.73 31.2,-18.61c1.37,-1.29 1.37,-1.29 3.37,-1.29c0,-0.66 0,-1.32 0,-2c0.66,0 1.32,0 2,0c0.26,-0.57 0.53,-1.15 0.8,-1.74c1.27,-2.39 2.74,-4.29 4.45,-6.38c10.04,-12.84 15.25,-27.08 18.75,-42.88c0.5,-2.05 1.02,-4.09 1.56,-6.12c1.72,-11.27 0.83,-24.3 -5.56,-33.88c-0.74,-1.76 -1.49,-3.52 -2.21,-5.29c-3.61,-8.8 -8.02,-16.15 -13.79,-23.71c-0.7,-0.98 -0.7,-0.98 -1.41,-1.97c-8.59,-11.14 -23.32,-20.61 -36.59,-25.03c0,-1.98 0,-3.96 0,-6zm52,51c1,2 1,2 1,2l-1,-2zm1,2c1,2 1,2 1,2l-1,-2zm1,3c1,2 1,2 1,2l-1,-2zm1,2c1,3 1,3 1,3l-1,-3zm-175,16c1,2 1,2 1,2l-1,-2zm2,41c1,2 1,2 1,2l-1,-2zm2,6c1,2 1,2 1,2l-1,-2zm2,5c1,2 1,2 1,2l-1,-2z" fill="var(--color-text-primary)" id="svg_4"/>
  <path d="m203,173c6.15,9.22 6.15,21.28 4.57,31.91c-1.88,7.89 -5.78,14.98 -9.57,22.09c-3,0 -3,0 -5.44,-1.56c-2.39,-1.65 -2.39,-1.65 -4.75,-1.31c-2.17,0.85 -2.17,0.85 -3.81,3.87c-0.66,0 -1.32,0 -2,0c0,0.66 0,1.32 0,2c-0.99,0 -1.98,0 -3,0c0,-8.25 0,-16.5 0,-25c-4.52,2.63 -4.52,2.63 -9.03,5.27c-4.75,2.73 -4.75,2.73 -6.97,2.73c0,9.24 0,18.48 0,28c-1.32,0 -2.64,0 -4,0c0,-8.25 0,-16.5 0,-25c-2.25,0.66 -4.5,1.32 -6.81,2c-6.82,2 -6.82,2 -10.19,2c0,6.93 0,13.86 0,21c-1.65,0 -3.3,0 -5,0c0,-6.6 0,-13.2 0,-20c-0.99,0.33 -1.98,0.66 -3,1c-2.23,0.07 -4.46,0.08 -6.69,0.06c-1.77,-0.01 -1.77,-0.01 -3.57,-0.02c-0.91,-0.02 -1.81,-0.03 -2.74,-0.04c0,2.64 0,5.28 0,8c-3.29,-0.37 -4.03,-1.03 -6.25,-3.62c-2.41,-2.55 -2.41,-2.55 -4.81,-2.56c-2.47,0.22 -2.47,0.22 -5.94,1.18c-0.33,0.66 -0.66,1.32 -1,2c-4,-6.75 -4,-6.75 -4,-9c1,0.01 2.01,0.02 3.04,0.03c3.77,0.04 7.54,0.06 11.31,0.08c1.62,0.01 3.24,0.02 4.87,0.04c9.14,0.1 17.84,0.03 26.78,-2.15c0.82,-0.19 1.64,-0.38 2.48,-0.58c11.74,-2.9 22.83,-9.38 32.29,-16.76c2.02,-1.5 3.94,-2.62 6.23,-3.66c0,-0.66 0,-1.32 0,-2c0.66,0 1.32,0 2,0c0,-0.66 0,-1.32 0,-2c0.66,0 1.32,0 2,0c0.25,-0.55 0.5,-1.09 0.75,-1.65c1.51,-2.83 3.3,-5.32 5.19,-7.91c0.69,-0.95 1.38,-1.9 2.09,-2.88c1.56,-2.03 3.1,-3.82 4.97,-5.56z" fill="var(--color-background)" id="svg_5"/>
  <path d="m181,102c4.98,0.54 8.9,2.19 13.25,4.56c0.66,0.36 1.31,0.71 1.99,1.08c5.77,3.2 10.8,7.01 15.76,11.36c0.54,0.43 1.07,0.87 1.63,1.32c4.42,3.62 7.92,7.52 11.31,12.12c0.51,0.69 1.03,1.39 1.56,2.11c8.43,11.66 13.86,23.56 17.5,37.45c0.25,0.88 0.49,1.77 0.75,2.68c4.83,20.85 0.58,43.37 -8.75,62.32c-1.68,1.91 -1.68,1.91 -3,3c-0.33,-0.99 -0.66,-1.98 -1,-3c0.96,-1.69 1.97,-3.35 3,-5c1.15,-2.58 2.14,-5.22 3.13,-7.87c0.26,-0.69 0.52,-1.37 0.8,-2.07c1.64,-4.37 2.57,-8.42 3.07,-13.06c-0.33,0 -0.66,0 -1,0c-0.7,-4.98 -1.08,-9.06 0,-14c0.74,-10.64 0,-22 -6,-31c-0.74,-1.76 -1.49,-3.52 -2.21,-5.29c-3.61,-8.8 -8.02,-16.15 -13.79,-23.71c-0.47,-0.65 -0.93,-1.3 -1.41,-1.97c-8.59,-11.14 -23.32,-20.61 -36.59,-25.03c0,-1.98 0,-3.96 0,-6zm52,51c1,2 1,2 1,2l-1,-2zm1,2c1,2 1,2 1,2l-1,-2zm1,3c1,2 1,2 1,2l-1,-2zm1,2c1,3 1,3 1,3l-1,-3z" fill="var(--color-background)" id="svg_11"/>
  <path d="m243,195c0.33,0 0.66,0 1,0c0.83,13.58 -3.23,28.9 -10,40.75c-1.14,2.28 -1.14,2.28 -1.34,5.09c-0.75,3.59 -1.87,5.19 -4.22,7.97c-0.73,0.86 -1.45,1.72 -2.2,2.6c-0.74,0.86 -1.48,1.71 -2.24,2.59c-0.66,0.79 -1.31,1.58 -1.99,2.4c-4.8,5.64 -10.33,12.13 -17.59,14.41c-2.42,0.19 -2.42,0.19 -5.42,-1.81c1.14,-1.14 2.28,-2.28 3.43,-3.42c1.14,-1.15 2.27,-2.31 3.39,-3.47c0.62,-0.63 1.23,-1.27 1.87,-1.92c0.58,-0.61 1.16,-1.21 1.76,-1.83c1.55,-1.36 1.55,-1.36 3.55,-1.36c0,-0.66 0,-1.32 0,-2c0.66,0 1.32,0 2,0c0.26,-0.57 0.53,-1.15 0.8,-1.74c1.27,-2.39 2.74,-4.29 4.45,-6.38c10.01,-12.8 15.34,-27.09 18.75,-42.88c0.99,0 1.98,0 3,0c0.33,-2.97 0.66,-5.94 1,-9z" fill="var(--color-background)" id="svg_14"/>
  <path d="m112,140c0.99,0.33 1.98,0.66 3,1c-1.29,1.17 -2.58,2.34 -3.88,3.5c-0.71,0.65 -1.43,1.3 -2.17,1.97c-1.95,1.53 -1.95,1.53 -3.95,1.53c0,0.66 0,1.32 0,2c0.99,0.33 1.98,0.66 3,1c-0.83,0.99 -1.65,1.98 -2.5,3c-3.1,4.12 -5.44,8.47 -7.75,13.06c-0.34,0.67 -0.68,1.35 -1.03,2.04c-6.5,13.22 -6.3,26.76 -4.1,41.03c0.13,0.94 0.25,1.89 0.38,2.87c-1,1 -1,1 -2.85,1.1c-2.05,-0.03 -4.1,-0.07 -6.15,-0.1c1.48,-0.5 1.48,-0.5 3,-1c-0.22,-0.9 -0.22,-0.9 -0.44,-1.81c-4.18,-19.53 -1.28,-37.2 9.44,-54.19c3.87,-5.7 8.23,-11.12 14,-15c0.66,0 1.32,0 2,0c0,-0.66 0,-1.32 0,-2z" fill="var(--color-background)" id="svg_15"/>
  <path d="m206,166c0.66,0 1.32,0 2,0c7.51,7.86 8.62,20.2 8.47,30.65c-0.51,12.12 -4.21,24.52 -11.47,34.35c-2.03,1.04 -2.03,1.04 -4,1c-1.75,-1.44 -1.75,-1.44 -3,-3c0.38,-0.48 0.75,-0.95 1.14,-1.44c9.7,-13.27 11.39,-27.57 9.86,-43.56c-0.59,-3.14 -1.29,-6.03 -2.34,-9.04c-0.66,-1.96 -0.66,-1.96 -0.66,-4.96c-0.66,-0.33 -1.32,-0.66 -2,-1c0.66,-0.99 1.32,-1.98 2,-3z" fill="var(--color-text-primary)" id="svg_17"/>
  <path d="m120,104c0,1.32 0,2.64 0,4c-0.78,0.38 -0.78,0.38 -1.57,0.78c-10.41,5.18 -19.87,10.24 -28.43,18.22c-0.61,0.52 -1.23,1.05 -1.86,1.59c-6.66,6.01 -12.47,14.7 -16.27,22.82c-0.29,0.52 -0.57,1.05 -0.87,1.59c-2.63,0.75 -2.63,0.75 -5,1c0.99,-3.18 2.05,-6.09 3.56,-9.06c1.53,-2.77 1.53,-2.77 1.84,-5.36c1.81,-7.82 10.6,-15.62 16.6,-20.58c1.33,-0.35 2.66,-0.68 4,-1c2.23,-1.38 4.4,-2.78 6.56,-4.25c14.76,-9.75 14.76,-9.75 21.44,-9.75z" fill="var(--color-text-primary)" id="svg_18"/>
  <path d="m202,265c0,2.71 -0.04,4.5 -1,7c-1.76,1.26 -1.76,1.26 -4.04,2.32c-0.83,0.39 -1.66,0.78 -2.51,1.18c-0.87,0.39 -1.74,0.78 -2.64,1.19c-1.27,0.6 -1.27,0.6 -2.58,1.22c-4.46,2.06 -8.34,3.38 -13.23,4.09c-0.33,0.66 -0.66,1.32 -1,2c0,-0.66 0,-1.32 0,-2c-0.61,0.22 -1.22,0.43 -1.85,0.66c-13.42,4.08 -29.62,3.96 -43.15,0.34c0.33,-1.32 0.66,-2.64 1,-4c1.26,0.33 2.52,0.66 3.81,1c23.56,4.64 47.46,-1.84 67.19,-15z" fill="var(--color-text-primary)" id="svg_19"/>
  <path d="m102,152c0.66,0.66 1.32,1.32 2,2c-1.98,0.99 -1.98,0.99 -4,2c0.66,-1.32 1.32,-2.64 2,-4zm-3,4c1.93,5.78 -1.45,12 -4.06,17.25c-5.52,12.18 -4.18,26.7 -3.94,39.75c-2,-1 -2,-1 -3.11,-4.07c-4.15,-16.02 -0.06,-33.98 7.49,-48.23c1.62,-2.7 1.62,-2.7 3.62,-4.7z" fill="var(--color-text-primary)" id="svg_20"/>
  <path d="m173,134c7.51,-0.63 13.21,4.72 18.76,9.26c4.5,3.96 8.55,8.02 12.24,12.74c0.66,0.66 1.32,1.32 2,2c-0.8,0.29 -1.61,0.58 -2.44,0.88c-2.69,0.85 -2.69,0.85 -3.56,3.12c-0.77,-1.52 -0.77,-1.52 -1.56,-3.06c-5.4,-9.27 -15.31,-16.56 -25.44,-19.94c0,-1.65 0,-3.3 0,-5z" fill="var(--color-text-primary)" id="svg_21"/>
  <path d="m162.5,58.31c0.87,0.03 1.73,0.07 2.62,0.1c4.58,0.25 8.63,0.7 12.88,2.59c2.47,3.42 3.01,5.39 2.94,9.62c-1.03,3.69 -1.85,5.17 -4.94,7.38c-1.32,0 -2.64,0 -4,0c0,17.16 0,34.32 0,52c-1.92,-3.84 -2.24,-4.93 -2.14,-8.95c0.02,-0.99 0.05,-1.97 0.07,-2.98c0.04,-1.57 0.04,-1.57 0.09,-3.18c0.04,-1.62 0.04,-1.62 0.08,-3.28c0.08,-3.45 0.18,-6.91 0.28,-10.36c0.05,-2.34 0.11,-4.69 0.17,-7.03c0.14,-5.74 0.29,-11.48 0.45,-17.22c0.97,-0.29 1.94,-0.58 2.94,-0.88c3.17,-0.76 3.17,-0.76 4.06,-3.12c0.14,-3.89 0.04,-7.26 -1,-11c-7.19,-0.05 -14.38,-0.09 -21.57,-0.11c-2.45,-0.01 -4.89,-0.03 -7.34,-0.04c-3.51,-0.03 -7.03,-0.04 -10.54,-0.05c-1.1,-0.01 -2.19,-0.02 -3.32,-0.03c-1.02,0 -2.04,0 -3.09,0c-1.35,-0.01 -1.35,-0.01 -2.72,-0.01c-2.58,0.25 -4.21,0.94 -6.42,2.24c0.33,-0.99 0.66,-1.98 1,-3c5.14,-2.42 10.48,-2.48 16.06,-2.69c0.96,-0.04 1.92,-0.08 2.9,-0.12c6.86,-0.23 13.68,-0.18 20.54,0.12z" fill="var(--color-text-primary)" id="svg_22"/>
  <path d="m226,244c0,0.99 0,1.98 0,3c0.09,0.78 0.18,1.55 0.28,2.35c-0.75,7.09 -9.82,13.48 -15.09,17.78c-3,2.35 -5.35,3.56 -9.19,3.87c-0.99,-0.66 -1.98,-1.32 -3,-2c1.14,-1.14 2.28,-2.28 3.43,-3.42c1.14,-1.15 2.27,-2.31 3.39,-3.47c0.62,-0.63 1.23,-1.27 1.87,-1.92c0.58,-0.61 1.16,-1.21 1.76,-1.83c1.55,-1.36 1.55,-1.36 3.55,-1.36c0,-0.66 0,-1.32 0,-2c0.66,0 1.32,0 2,0c0.33,-0.99 0.66,-1.98 1,-3c2,-0.5 2,-0.5 4,-1c1.76,-1.61 1.76,-1.61 3.25,-3.56c0.52,-0.64 1.04,-1.28 1.58,-1.94c0.38,-0.5 0.77,-0.99 1.17,-1.5z" fill="var(--color-text-primary)" id="svg_23"/>
  <path d="m206,166c0.66,0 1.32,0 2,0c7.24,7.58 8.35,18.99 8.38,29.06c0,1.05 0,1.05 0,2.13c-0.09,4.27 -0.83,7.83 -2.38,11.81c-0.33,0 -0.66,0 -1,0c0,-7.59 0,-15.18 0,-23c-0.33,5.28 -0.66,10.56 -1,16c-0.99,-0.33 -1.98,-0.66 -3,-1c0.03,-1.1 0.07,-2.2 0.11,-3.33c0.17,-7.92 0.09,-14.96 -2.45,-22.57c-0.66,-2.1 -0.66,-2.1 -0.66,-5.1c-0.66,-0.33 -1.32,-0.66 -2,-1c0.66,-0.99 1.32,-1.98 2,-3z" fill="var(--color-text-primary)" id="svg_24"/>
  <path d="m122,281c3.17,0.43 6.32,0.87 9.47,1.48c7.37,1.38 14.64,1.89 22.12,2.18c0.79,0.03 1.57,0.06 2.38,0.09c1.06,0.04 1.06,0.04 2.14,0.08c1.89,0.17 1.89,0.17 4.89,1.17c0,-0.66 0,-1.32 0,-2c3.96,-0.66 7.92,-1.32 12,-2c-0.33,0.99 -0.66,1.98 -1,3c-14.35,6.62 -36.53,3.82 -51,-1c-0.33,-0.99 -0.66,-1.98 -1,-3z" fill="var(--color-text-primary)" id="svg_26"/>
  <path d="m64,220c3,1 3,1 4.75,4.42c0.62,1.44 1.22,2.88 1.81,4.33c0.31,0.72 0.61,1.43 0.92,2.17c0.59,1.4 1.17,2.79 1.74,4.19c0.66,1.6 1.35,3.18 2.05,4.76c0.73,2.13 0.73,2.13 -0.14,4.44c-0.38,0.56 -0.75,1.12 -1.13,1.69c-3.99,-3.44 -5.94,-7.35 -8.19,-12c-0.35,-0.71 -0.71,-1.42 -1.07,-2.16c-1.61,-3.27 -2.94,-6.27 -3.74,-9.84c0.99,-0.66 1.98,-1.32 3,-2zm1,3c1,2 1,2 1,2l-1,-2zm2,5c1,2 1,2 1,2l-1,-2z" fill="var(--color-text-primary)" id="svg_27"/>
  <path d="m202,265c0,2.71 -0.04,4.5 -1,7c-1.76,1.26 -1.76,1.26 -4.04,2.32c-0.83,0.39 -1.66,0.78 -2.51,1.18c-0.87,0.39 -1.74,0.78 -2.64,1.19c-1.27,0.6 -1.27,0.6 -2.58,1.22c-4.46,2.06 -8.34,3.38 -13.23,4.09c-0.33,0.66 -0.66,1.32 -1,2c0,-0.66 0,-1.32 0,-2c-0.99,0 -1.98,0 -3,0c0.5,-1.48 0.5,-1.48 1,-3c2.29,-1.07 4.5,-1.96 6.87,-2.81c7.85,-2.96 15.14,-6.53 22.13,-11.19z" fill="var(--color-text-primary)" id="svg_28"/>
  <path d="m163,16c0.33,0 0.66,0 1,0c0,2.31 0,4.62 0,7c-0.66,0 -1.32,0 -2,0c-0.23,0.59 -0.46,1.18 -0.7,1.79c-1.63,2.77 -3.42,3.9 -6.11,5.65c-5.62,3.7 -5.62,3.7 -10.19,8.56c-0.68,4.04 -0.3,8.11 1,12c-0.66,0 -1.32,0 -2,0c-2.4,-4.6 -3.59,-7.91 -2.62,-13.09c1.5,-4.64 4.07,-7.06 8.22,-9.33c0.96,-0.48 1.91,-0.96 2.9,-1.45c4.86,-2.47 7.22,-4.77 9.7,-9.59c0.26,-0.51 0.53,-1.02 0.8,-1.54z" fill="var(--color-text-primary)" id="svg_29"/>
  <path d="m65,155c0.99,0 1.98,0 3,0c1.31,3.94 0.09,6.39 -1.25,10.13c-0.47,1.35 -0.94,2.7 -1.41,4.05c-0.23,0.65 -0.46,1.3 -0.7,1.98c-0.82,2.37 -1.57,4.76 -2.33,7.15c-1.31,3.69 -1.31,3.69 -3.31,5.69c-0.46,2.66 -0.46,2.66 -0.63,5.63c-0.07,1 -0.14,2 -0.22,3.03c-0.05,0.77 -0.1,1.55 -0.15,2.34c-0.33,0 -0.66,0 -1,0c-0.88,-13.77 1.62,-27.7 8,-40zm-4,21c1,2 1,2 1,2l-1,-2z" fill="var(--color-text-primary)" id="svg_30"/>
  <path d="m120,104c0,1.32 0,2.64 0,4c-0.53,0.27 -1.07,0.54 -1.62,0.82c-2.46,1.26 -4.92,2.53 -7.38,3.81c-0.84,0.42 -1.68,0.85 -2.54,1.29c-5.58,2.89 -10.56,6.15 -15.46,10.08c-0.66,-0.33 -1.32,-0.66 -2,-1c0.69,-0.54 1.37,-1.09 2.08,-1.64c0.9,-0.72 1.8,-1.44 2.73,-2.17c0.9,-0.71 1.79,-1.42 2.71,-2.15c2.64,-2.17 4.91,-4.36 7.1,-6.98c4,-3.47 9.03,-6.06 14.38,-6.06z" fill="var(--color-text-primary)" id="svg_33"/>
  <path d="m128,134c-2,1.33 -4,2.67 -6,4c0.66,0.66 1.32,1.32 2,2c-2.27,1.65 -4.54,3.3 -6.81,4.94c-0.97,0.7 -0.97,0.7 -1.95,1.42c-0.62,0.45 -1.24,0.89 -1.88,1.35c-0.58,0.42 -1.15,0.83 -1.73,1.26c-1.63,1.03 -1.63,1.03 -4.63,2.03c-0.66,-0.33 -1.32,-0.66 -2,-1c0,-0.66 0,-1.32 0,-2c2.26,-1.9 4.64,-3.6 7.03,-5.34c0.65,-0.55 1.3,-1.1 1.97,-1.66c0,-0.66 0,-1.32 0,-2c1.39,-0.85 2.79,-1.68 4.19,-2.5c0.77,-0.46 1.55,-0.93 2.35,-1.41c2.7,-1.2 4.54,-1.3 7.46,-1.09z" fill="var(--color-text-primary)" id="svg_34"/>
  <path d="m88,119c0.66,0.33 1.32,0.66 2,1c-0.5,0.6 -0.99,1.2 -1.5,1.81c-1.78,2.16 -1.78,2.16 -1.5,5.19c-1.49,2.18 -3.24,4.02 -5,6c-0.66,-0.33 -1.32,-0.66 -2,-1c-2.06,1.81 -2.06,1.81 -4,4c0,0.99 0,1.98 0,3c-1.09,2.04 -1.09,2.04 -2.5,4.19c-0.46,0.71 -0.93,1.43 -1.41,2.17c-0.36,0.54 -0.72,1.08 -1.09,1.64c-1.22,-2.44 -1.19,-4.22 -0.75,-6.88c2.96,-8.33 11.52,-15.15 17.75,-21.12z" fill="var(--color-text-primary)" id="svg_35"/>
  <path d="m89,216c2.64,0.33 5.28,0.66 8,1c0.12,1.02 0.12,1.02 0.25,2.06c0.97,3.81 2.71,6.58 4.75,9.94c-3,2 -3,2 -4.98,2c-3.11,-1.54 -3.82,-3.86 -5.27,-6.94c-0.52,-1.08 -1.04,-2.16 -1.58,-3.27c-1.17,-2.79 -1.17,-2.79 -1.17,-4.79z" fill="var(--color-text-primary)" id="svg_36"/>
  <path d="m91,169c0.66,0 1.32,0 2,0c-0.31,1.6 -0.62,3.21 -0.94,4.81c-0.17,0.9 -0.35,1.79 -0.52,2.71c-0.54,2.48 -0.54,2.48 -1.54,5.48c-0.07,2.23 -0.08,4.46 -0.06,6.69c0.01,1.77 0.01,1.77 0.02,3.57c0.02,0.91 0.03,1.81 0.04,2.74c0.33,0 0.66,0 1,0c0,5.94 0,11.88 0,18c-2,-1 -2,-1 -3.11,-4.07c-1.02,-3.94 -1.23,-7.81 -1.2,-11.87c0,-0.73 0,-1.45 0,-2.2c0.16,-8.72 1.55,-17.58 4.31,-25.86z" fill="var(--color-text-primary)" id="svg_37"/>
  <path d="m243,195c0.33,0 0.66,0 1,0c0.62,10.16 -1.71,19.44 -5,29c-2.87,-5.36 -3.18,-8.3 -1.56,-14.25c0.28,-1.08 0.57,-2.16 0.87,-3.27c0.23,-0.82 0.45,-1.64 0.69,-2.48c0.99,0 1.98,0 3,0c0.33,-2.97 0.66,-5.94 1,-9z" fill="var(--color-text-primary)" id="svg_39"/>
  <path d="m210,214c0.33,0.66 0.66,1.32 1,2c-0.89,2.21 -0.89,2.21 -2.25,4.81c-0.46,0.89 -0.93,1.78 -1.4,2.7c-1.38,2.55 -2.8,5.05 -4.35,7.49c-1.65,-0.33 -3.3,-0.66 -5,-1c1.12,-1.94 2.25,-3.88 3.37,-5.81c0.94,-1.62 0.94,-1.62 1.9,-3.27c3.45,-5.83 3.45,-5.83 6.73,-6.92z" fill="var(--color-text-primary)" id="svg_41"/>
  <path d="m206,166c0.66,0 1.32,0 2,0c2.58,5.39 4.62,10.98 5,17c-0.66,0.66 -1.32,1.32 -2,2c-2,-1 -2,-1 -2.85,-3.4c-0.26,-0.98 -0.51,-1.96 -0.77,-2.97c-0.27,-0.98 -0.53,-1.96 -0.79,-2.97c-0.59,-2.66 -0.59,-2.66 -0.59,-5.66c-0.66,-0.33 -1.32,-0.66 -2,-1c0.66,-0.99 1.32,-1.98 2,-3z" fill="var(--color-text-primary)" id="svg_44"/>
  <path d="m113.29,219.9c2.57,0.03 5.14,0.07 7.71,0.1c-0.33,3.3 -0.66,6.6 -1,10c-3.57,-1.79 -5.43,-3.07 -8,-6c0,-0.66 0,-1.32 0,-2c-0.66,-0.33 -1.32,-0.66 -2,-1c1,-1 1,-1 3.29,-1.1z" fill="var(--color-text-primary)" id="svg_45"/>
  <path d="m173,134c7.55,-0.64 13.28,4.79 18.87,9.33c7.37,6.45 7.37,6.45 9.13,10.67c-3.71,-2.68 -7.3,-5.28 -10.5,-8.56c-4.74,-4.62 -10.55,-7.61 -16.5,-10.44c0.99,1.32 1.98,2.64 3,4c-1.32,0 -2.64,0 -4,0c0,-1.65 0,-3.3 0,-5z" fill="var(--color-text-primary)" id="svg_46"/>
  <path d="m76,241c0.54,0.69 1.08,1.39 1.64,2.11c2.59,3.18 5.32,6.19 8.11,9.2c0.51,0.55 1.01,1.1 1.54,1.67c1.23,1.34 2.47,2.68 3.71,4.02c-0.33,0.99 -0.66,1.98 -1,3c-2.04,-1.62 -4.04,-3.29 -6,-5c0,-0.66 0,-1.32 0,-2c-0.66,0 -1.32,0 -2,0c-0.58,-1.07 -1.16,-2.14 -1.75,-3.25c-1.73,-3.05 -3.61,-5.4 -6.25,-7.75c0.66,-0.66 1.32,-1.32 2,-2z" fill="var(--color-text-primary)" id="svg_47"/>
  <path d="m174,135c8.75,2.24 16.85,8.5 23,15c0,0.66 0,1.32 0,2c-3.17,-1.41 -5.37,-3.12 -7.87,-5.5c-3.25,-2.92 -5.85,-4.4 -10.13,-5.5c-3.01,-2.01 -3.63,-2.84 -5,-6z" fill="var(--color-text-primary)" id="svg_48"/>
  <path d="m202,265c0,2.7 -0.01,4.51 -1,7c-1.86,0.98 -1.86,0.98 -4.19,1.63c-0.8,0.23 -1.61,0.47 -2.44,0.71c-0.78,0.22 -1.57,0.44 -2.37,0.66c-1.18,0.39 -2.35,0.78 -3.56,1.19c-0.81,0.27 -1.61,0.53 -2.44,0.81c0,-0.99 0,-1.98 0,-3c0.9,-0.48 1.81,-0.96 2.74,-1.46c1.19,-0.64 2.38,-1.28 3.57,-1.91c0.6,-0.32 1.19,-0.64 1.81,-0.97c2.71,-1.45 5.31,-2.95 7.88,-4.66z" fill="var(--color-text-primary)" id="svg_50"/>
  <path d="m207,187c0.33,0 0.66,0 1,0c0.55,15.74 0.55,15.74 -3,23c-0.66,-1.32 -1.32,-2.64 -2,-4c0.66,-0.33 1.32,-0.66 2,-1c-0.02,-0.96 -0.05,-1.93 -0.07,-2.92c-0.02,-1.27 -0.04,-2.53 -0.06,-3.83c-0.02,-1.25 -0.04,-2.51 -0.07,-3.8c0.18,-3.18 0.51,-4.82 2.2,-7.45z" fill="var(--color-text-primary)" id="svg_51"/>
  <path d="m70,140c0.66,0.99 1.32,1.98 2,3c-0.31,0.53 -0.62,1.06 -0.95,1.61c-0.38,0.71 -0.77,1.41 -1.18,2.14c-0.39,0.7 -0.78,1.39 -1.19,2.11c-0.94,2.18 -0.94,2.18 0.2,4.41c0.37,0.57 0.74,1.14 1.12,1.73c-0.66,0.66 -1.32,1.32 -2,2c-0.66,0 -1.32,0 -2,0c0,-0.66 0,-1.32 0,-2c-0.66,0 -1.32,0 -2,0c0.39,-6.16 2.47,-9.99 6,-15z" fill="var(--color-text-primary)" id="svg_52"/>
  <path d="m159,35c0.66,0.33 1.32,0.66 2,1c0.31,3.25 0.31,3.25 0,7c-2.93,3.1 -6,4.63 -10,6c0,2.97 0,5.94 0,9c-0.66,-0.33 -1.32,-0.66 -2,-1c-0.88,-3.31 -0.88,-3.31 -1,-7c2.04,-2.86 4.13,-4.07 7.19,-5.81c3.18,-2.01 3.18,-2.01 3.68,-5.94c0.05,-1.07 0.09,-2.15 0.13,-3.25z" fill="var(--color-text-primary)" id="svg_53"/>
  <path d="m163,16c0.33,0 0.66,0 1,0c0,2.31 0,4.62 0,7c-0.66,0 -1.32,0 -2,0c-0.21,0.58 -0.41,1.15 -0.63,1.75c-1.91,3.13 -4.19,4.5 -7.37,6.25c-0.99,-0.33 -1.98,-0.66 -3,-1c0,-0.66 0,-1.32 0,-2c1.4,-0.97 2.85,-1.88 4.31,-2.75c4.03,-2.57 6.04,-4.64 7.69,-9.25z" fill="var(--color-text-primary)" id="svg_54"/>
  <path d="m125,145c-1.29,1.01 -2.58,2 -3.88,3c-0.71,0.56 -1.43,1.11 -2.17,1.69c-1.95,1.31 -1.95,1.31 -3.95,1.31c-0.33,0.99 -0.66,1.98 -1,3c-1.63,1.39 -1.63,1.39 -3.56,2.69c-0.96,0.65 -0.96,0.65 -1.94,1.32c-0.5,0.33 -0.99,0.65 -1.5,0.99c0.49,-4.2 2.72,-5.92 5.81,-8.62c0.88,-0.78 1.75,-1.56 2.65,-2.36c5.49,-4.37 5.49,-4.37 9.54,-3.02z" fill="var(--color-text-primary)" id="svg_58"/>
  <path d="m159,2c2,3 2,3 1.94,5.94c-1.39,4.53 -4.28,6.04 -8.19,8.44c-2.46,2.28 -2.46,4.36 -2.75,7.62c-0.66,-0.66 -1.32,-1.32 -2,-2c0.08,-3.85 0.5,-5.5 3.25,-8.25c2.54,-1.62 4.9,-2.77 7.75,-3.75c0,-2.64 0,-5.28 0,-8z" fill="var(--color-text-primary)" id="svg_59"/>
  <path d="m213,185c0.33,0 0.66,0 1,0c0.06,3.08 0.09,6.17 0.13,9.25c0.01,0.87 0.03,1.75 0.05,2.64c0,0.85 0.01,1.69 0.02,2.56c0.01,0.78 0.02,1.55 0.03,2.35c-0.26,2.46 -1.01,4.07 -2.23,6.2c-2,-3.75 -2,-3.75 -2,-6c0.66,0 1.32,0 2,0c-0.01,-1.14 -0.02,-2.29 -0.04,-3.46c0,-1.5 -0.01,-2.99 -0.02,-4.48c-0.01,-0.75 -0.02,-1.51 -0.03,-2.28c-0.01,-1.93 0.04,-3.86 0.09,-5.78c0.33,-0.33 0.66,-0.66 1,-1z" fill="var(--color-text-primary)" id="svg_60"/>
  <path d="m110,219c6.27,0 12.54,0 19,0c0,0.33 0,0.66 0,1c2.48,0.5 2.48,0.5 5,1c0,0.33 0,0.66 0,1c-4.29,0 -8.58,0 -13,0c0,2.64 0,5.28 0,8c-0.33,0 -0.66,0 -1,0c0,-2.97 0,-5.94 0,-9c-3.3,-0.33 -6.6,-0.66 -10,-1c0,-0.33 0,-0.66 0,-1z" fill="var(--color-text-primary)" id="svg_61"/>
  <path d="m76,131c0.66,0 1.32,0 2,0c-0.33,0.76 -0.66,1.53 -1,2.31c-1.17,2.68 -1.17,2.68 -1,5.69c-1.09,2.04 -1.09,2.04 -2.5,4.19c-0.46,0.71 -0.93,1.43 -1.41,2.17c-0.36,0.54 -0.72,1.08 -1.09,1.64c-1.62,-3.23 -0.8,-5.53 0,-9c1.46,-2.64 3.04,-4.66 5,-7z" fill="var(--color-text-primary)" id="svg_64"/>
  <path d="m226,239c0.99,0 1.98,0 3,0c-1.37,4.06 -3.22,6.67 -6.13,9.81c-0.72,0.79 -1.44,1.58 -2.19,2.4c-0.55,0.59 -1.11,1.18 -1.68,1.79c-0.66,-0.66 -1.32,-1.32 -2,-2c0.72,-0.92 0.72,-0.92 1.46,-1.86c0.63,-0.81 1.26,-1.62 1.91,-2.45c0.63,-0.8 1.26,-1.6 1.9,-2.43c1.31,-1.71 2.54,-3.47 3.73,-5.26z" fill="var(--color-text-primary)" id="svg_65"/>
  <path d="m236,218c0.99,0 1.98,0 3,0c-0.49,5.9 -1.33,10.66 -4,16c-0.66,0.33 -1.32,0.66 -2,1c0.92,-4.74 0.92,-4.74 1.62,-7.06c0.53,-1.96 0.53,-1.96 -0.18,-3.94c-0.58,-2.62 0.2,-3.76 1.56,-6z" fill="var(--color-text-primary)" id="svg_68"/>
  <path d="m102,152c0.66,0.66 1.32,1.32 2,2c-1.98,0.99 -1.98,0.99 -4,2c0.66,-1.32 1.32,-2.64 2,-4zm-3,4c1.31,3.94 0.24,6.12 -1,10c-0.33,-0.66 -0.66,-1.32 -1,-2c-0.66,0 -1.32,0 -2,0c0,0.99 0,1.98 0,3c-0.66,0 -1.32,0 -2,0c1.45,-4.11 3.51,-7.43 6,-11z" fill="var(--color-text-primary)" id="svg_72"/>
  <path d="m238,224c0.33,0 0.66,0 1,0c-0.29,6.42 -1.45,10.62 -5,16c-0.66,-0.99 -1.32,-1.98 -2,-3c0.43,-0.66 0.87,-1.32 1.31,-2c2.01,-3.58 3.31,-7.13 4.69,-11z" fill="var(--color-text-primary)" id="svg_77"/>
  <path d="m226,244c0,2.67 0,5.33 0,8c-3.75,2 -3.75,2 -6,2c-0.99,0.49 -0.99,0.49 -2,1c1.36,-2.99 2.95,-5.29 5.12,-7.75c0.54,-0.61 1.08,-1.23 1.64,-1.86c0.61,-0.69 0.61,-0.69 1.24,-1.39z" fill="var(--color-text-primary)" id="svg_79"/>
  <path d="m193,158c3.34,1.38 5.22,2.82 7,6c-0.31,2.25 -0.31,2.25 -1,4c0,-0.66 0,-1.32 0,-2c-1.65,0.33 -3.3,0.66 -5,1c-1,-3 -1,-3 0,-6c-0.33,-0.99 -0.66,-1.98 -1,-3z" fill="var(--color-text-primary)" id="svg_80"/>
  <path d="m175,283c-1.42,2.03 -2.55,2.9 -4.98,3.42c-2,0.24 -4.01,0.42 -6.02,0.58c-0.33,-0.99 -0.66,-1.98 -1,-3c1.44,-0.36 2.87,-0.72 4.31,-1.06c0.8,-0.2 1.6,-0.4 2.43,-0.6c2.26,-0.34 2.26,-0.34 5.26,0.66z" fill="var(--color-text-primary)" id="svg_82"/>
  <path d="m217,258c0.33,0.99 0.66,1.98 1,3c-1.79,1.51 -3.58,3 -5.38,4.5c-0.99,0.84 -1.99,1.67 -3.02,2.53c-2.6,1.97 -2.6,1.97 -4.6,1.97c1.2,-3.6 2.43,-4.34 5.44,-6.56c2.33,-1.75 4.5,-3.38 6.56,-5.44z" fill="var(--color-text-primary)" id="svg_83"/>
  <path d="m234,224c1.12,1.73 1.12,1.73 2,4c-0.68,2.14 -0.68,2.14 -1.87,4.25c-0.39,0.71 -0.78,1.41 -1.18,2.14c-0.32,0.53 -0.63,1.06 -0.95,1.61c-1.12,-1.73 -1.12,-1.73 -2,-4c0.68,-2.14 0.68,-2.14 1.87,-4.25c0.39,-0.71 0.78,-1.41 1.18,-2.14c0.32,-0.53 0.63,-1.06 0.95,-1.61z" fill="var(--color-text-primary)" id="svg_84"/>
  <path d="m89,216c3,1 3,1 4.1,3.14c0.32,0.88 0.63,1.77 0.96,2.67c1.17,3.17 2.37,6.2 3.94,9.19c-3,-1 -3,-1 -4.61,-3.65c-0.52,-1.09 -1.04,-2.17 -1.58,-3.29c-0.53,-1.08 -1.06,-2.16 -1.6,-3.27c-1.21,-2.79 -1.21,-2.79 -1.21,-4.79z" fill="var(--color-text-primary)" id="svg_85"/>
  <path d="m102,111c1.32,0.66 2.64,1.32 4,2c-1.43,1.01 -2.87,2.01 -4.31,3c-1.2,0.84 -1.2,0.84 -2.43,1.69c-2.26,1.31 -2.26,1.31 -5.26,1.31c1.5,-4.21 4.29,-5.74 8,-8z" fill="var(--color-text-primary)" id="svg_87"/>
  <path d="m94,217c0.99,0.33 1.98,0.66 3,1c0.72,1.98 1.38,3.99 2,6c0.96,1.69 1.94,3.37 3,5c-0.99,0 -1.98,0 -3,0c-0.84,-1.43 -1.67,-2.87 -2.5,-4.31c-0.7,-1.2 -0.7,-1.2 -1.41,-2.43c-1.09,-2.26 -1.09,-2.26 -1.09,-5.26z" fill="var(--color-text-primary)" id="svg_89"/>
  <path d="m104,160c0.99,0.33 1.98,0.66 3,1c-0.99,0.5 -0.99,0.5 -2,1c-0.72,1.98 -1.38,3.98 -2,6c-0.33,0.66 -0.66,1.32 -1,2c-0.66,0 -1.32,0 -2,0c-0.41,-3.6 -0.15,-4.78 2,-7.81c0.66,-0.72 1.32,-1.45 2,-2.19z" fill="var(--color-text-primary)" id="svg_90"/>
  <path d="m112,140c0.99,0.33 1.98,0.66 3,1c-1.29,1.17 -2.58,2.34 -3.88,3.5c-1.07,0.97 -1.07,0.97 -2.17,1.97c-1.95,1.53 -1.95,1.53 -3.95,1.53c-0.33,0.99 -0.66,1.98 -1,3c-0.66,-0.66 -1.32,-1.32 -2,-2c1.29,-1.17 2.58,-2.34 3.87,-3.5c0.72,-0.65 1.44,-1.3 2.18,-1.97c1.95,-1.53 1.95,-1.53 3.95,-1.53c0,-0.66 0,-1.32 0,-2z" fill="var(--color-text-primary)" id="svg_91"/>
  <path d="m207,261c0.75,1.75 0.75,1.75 1,4c-1.81,2.13 -1.81,2.13 -4,4c-0.66,0.66 -1.32,1.32 -2,2c-0.99,-0.66 -1.98,-1.32 -3,-2c2.67,-2.67 5.33,-5.33 8,-8z" fill="var(--color-text-primary)" id="svg_92"/>
  <path d="m197,218c1.32,0 2.64,0 4,0c-0.57,3.96 -1.81,6.67 -4,10c-0.66,-0.33 -1.32,-0.66 -2,-1c0,-0.66 0,-1.32 0,-2c0.66,0 1.32,0 2,0c0.33,-1.32 0.66,-2.64 1,-4c-0.66,-0.33 -1.32,-0.66 -2,-1c0.33,-0.66 0.66,-1.32 1,-2z" fill="var(--color-text-primary)" id="svg_93"/>
  <path d="m153,216c0,0.66 0,1.32 0,2c-3.3,0.66 -6.6,1.32 -10,2c2.73,-5.46 4.49,-5.34 10,-4z" fill="var(--color-text-primary)" id="svg_94"/>
  <path d="m181,102c5.54,0.62 5.54,0.62 7.88,2.56c0.55,0.71 0.55,0.71 1.12,1.44c-3.77,1.26 -5.37,0.37 -9,-1c0,-0.99 0,-1.98 0,-3z" fill="var(--color-text-primary)" id="svg_95"/>
  <path d="m88,119c0.66,0.33 1.32,0.66 2,1c-0.74,0.9 -0.74,0.9 -1.5,1.81c-1.78,2.16 -1.78,2.16 -1.5,5.19c-0.99,0 -1.98,0 -3,0c-0.33,-0.99 -0.66,-1.98 -1,-3c1.65,-1.65 3.3,-3.3 5,-5z" fill="var(--color-text-primary)" id="svg_97"/>
  <path d="m69,147c1.32,0.66 2.64,1.32 4,2c-0.69,1.94 -0.69,1.94 -2,4c-2.63,0.75 -2.63,0.75 -5,1c1.87,-5.87 1.87,-5.87 3,-7z" fill="var(--color-text-primary)" id="svg_99"/>
  <path d="m238,214c0.99,0.33 1.98,0.66 3,1c-0.66,2.97 -1.32,5.94 -2,9c-1.46,-2.92 -2.34,-4.92 -3,-8c0.66,0 1.32,0 2,0c0,-0.66 0,-1.32 0,-2z" fill="var(--color-text-primary)" id="svg_101"/>
  <path d="m97,172c0.66,0 1.32,0 2,0c0,0.99 0,1.98 0,3c0.66,0.33 1.32,0.66 2,1c-1.65,1.32 -3.3,2.64 -5,4c0.33,-2.64 0.66,-5.28 1,-8z" fill="var(--color-text-primary)" id="svg_102"/>
  <path d="m95,116c0.66,0.33 1.32,0.66 2,1c-2.97,2.64 -5.94,5.28 -9,8c-0.66,-0.33 -1.32,-0.66 -2,-1c1.12,-1.15 2.25,-2.29 3.37,-3.44c0.63,-0.64 1.26,-1.27 1.9,-1.93c1.73,-1.63 1.73,-1.63 3.73,-2.63z" fill="var(--color-text-primary)" id="svg_103"/>
  <path d="m159,35c0.66,0.33 1.32,0.66 2,1c0.25,3.31 0.25,3.31 0,7c-2,1.94 -2,1.94 -4,3c-0.66,-0.66 -1.32,-1.32 -2,-2c0.66,-0.56 1.32,-1.11 2,-1.69c2.25,-2.15 2.25,-2.15 2.25,-5.06c-0.08,-0.74 -0.16,-1.48 -0.25,-2.25z" fill="var(--color-text-primary)" id="svg_104"/>
  <path d="m112,108c0.66,0.33 1.32,0.66 2,1c-2.36,2.53 -3.66,3.89 -7,5c-0.33,-0.99 -0.66,-1.98 -1,-3c1.96,-1.07 3.97,-2.07 6,-3z" fill="var(--color-text-primary)" id="svg_109"/>
  <path d="m228,243c0.66,1.32 1.32,2.64 2,4c-0.99,1.32 -1.98,2.64 -3,4c-0.66,-0.33 -1.32,-0.66 -2,-1c0.61,-2.96 1.25,-4.38 3,-7z" fill="var(--color-text-primary)" id="svg_110"/>
  <path d="m151,14c0.66,0.66 1.32,1.32 2,2c-0.66,0.66 -1.32,1.32 -2,2c-0.4,1.99 -0.74,3.99 -1,6c-0.66,-0.66 -1.32,-1.32 -2,-2c0.45,-5.45 0.45,-5.45 3,-8z" fill="var(--color-text-primary)" id="svg_111"/>
  <path d="m71,138c0.99,0.33 1.98,0.66 3,1c-0.55,4.08 -0.91,4.91 -4,8c0.33,-2.97 0.66,-5.94 1,-9z" fill="var(--color-text-primary)" id="svg_114"/>
  <path d="m173,134c1.65,0 3.3,0 5,0c0.33,0.99 0.66,1.98 1,3c-2.48,-0.99 -2.48,-0.99 -5,-2c0.99,1.32 1.98,2.64 3,4c-1.32,0 -2.64,0 -4,0c0,-1.65 0,-3.3 0,-5z" fill="var(--color-text-primary)" id="svg_115"/>
  <path d="m221,252c0.66,0.99 1.32,1.98 2,3c-1.65,1.65 -3.3,3.3 -5,5c1.87,-6.87 1.87,-6.87 3,-8z" fill="var(--color-text-primary)" id="svg_117"/>
  <path d="m237,167c1,4 1,4 1,4l-1,-4z" fill="var(--color-text-primary)" id="svg_118"/>
  <path fill="var(--color-text-primary)" id="svg_119"/>
  <path d="m146,51c0.33,0.66 0.66,1.32 1,2c-0.66,-0.33 -1.32,-0.66 -2,-1c0.33,-0.33 0.66,-0.66 1,-1z" fill="var(--color-text-primary)" id="svg_120"/>
  <path fill="var(--color-text-primary)" id="svg_121"/>
  <path d="m162,14c2,1 2,1 2,1l-2,-1z" fill="var(--color-text-primary)" id="svg_122"/>
  <path fill="var(--color-text-primary)" id="svg_123"/>
  <path fill="var(--color-text-primary)" id="svg_124"/>
  <path fill="var(--color-text-primary)" id="svg_125"/>
 </g>
</svg>